$MeshFormat
4.1 0 8
$EndMeshFormat
$PhysicalNames
5
1 2 "l"
1 3 "r"
1 4 "t"
1 5 "b"
2 1 "Volume"
$EndPhysicalNames
$Entities
4 4 1 0
1 0 0 0 0 
2 4 0 0 0 
3 4 1 0 0 
4 0 1 0 0 
1 0 0 0 0 1 0 1 2 2 4 -1 
2 0 0 0 4 0 0 1 5 2 1 -2 
3 4 0 0 4 1 0 1 3 2 2 -3 
4 0 1 0 4 1 0 1 4 2 3 -4 
1 0 0 0 4 1 0 1 1 4 1 2 3 4 
$EndEntities
$Nodes
9 534 1 534
0 1 0 1
1
0 0 0
0 2 0 1
2
4 0 0
0 3 0 1
3
4 1 0
0 4 0 1
4
0 1 0
1 1 0 9
5
6
7
8
9
10
11
12
13
0 0.8999999999995836 0
0 0.7999999999999998 0
0 0.7000000000006934 0
0 0.6000000000013869 0
0 0.5000000000020587 0
0 0.4000000000016644 0
0 0.3000000000012483 0
0 0.2000000000008322 0
0 0.100000000000416 0
1 2 0 39
14
15
16
17
18
19
20
21
22
23
24
25
26
27
28
29
30
31
32
33
34
35
36
37
38
39
40
41
42
43
44
45
46
47
48
49
50
51
52
0.09999999999981146 0 0
0.1999999999995986 0 0
0.2999999999994113 0 0
0.3999999999992587 0 0
0.4999999999990951 0 0
0.5999999999988144 0 0
0.6999999999985229 0 0
0.7999999999982315 0 0
0.89999999999794 0 0
0.9999999999976484 0 0
1.099999999997357 0 0
1.199999999997066 0 0
1.299999999996774 0 0
1.399999999996483 0 0
1.499999999996191 0 0
1.5999999999959 0 0
1.699999999995608 0 0
1.799999999995317 0 0
1.899999999995025 0 0
1.999999999994777 0 0
2.099999999994997 0 0
2.19999999999526 0 0
2.299999999995524 0 0
2.399999999995787 0 0
2.49999999999605 0 0
2.599999999996314 0 0
2.699999999996577 0 0
2.79999999999684 0 0
2.899999999997104 0 0
2.999999999997367 0 0
3.09999999999763 0 0
3.199999999997893 0 0
3.299999999998157 0 0
3.39999999999842 0 0
3.499999999998683 0 0
3.599999999998947 0 0
3.69999999999921 0 0
3.799999999999474 0 0
3.899999999999737 0 0
1 3 0 9
53
54
55
56
57
58
59
60
61
4 0.09999999999981467 0
4 0.1999999999995579 0
4 0.2999999999992664 0
4 0.3999999999989749 0
4 0.4999999999986943 0
4 0.5999999999989468 0
4 0.69999999999921 0
4 0.7999999999994734 0
4 0.8999999999997368 0
1 4 0 39
62
63
64
65
66
67
68
69
70
71
72
73
74
75
76
77
78
79
80
81
82
83
84
85
86
87
88
89
90
91
92
93
94
95
96
97
98
99
100
3.899999999999583 1 0
3.799999999999167 1 0
3.699999999998751 1 0
3.599999999998334 1 0
3.499999999998004 1 0
3.399999999998612 1 0
3.299999999999305 1 0
3.199999999999999 1 0
3.100000000000693 1 0
3.000000000001386 1 0
2.90000000000208 1 0
2.800000000002774 1 0
2.700000000003467 1 0
2.60000000000416 1 0
2.500000000004854 1 0
2.400000000005547 1 0
2.300000000006241 1 0
2.200000000006934 1 0
2.100000000007628 1 0
2.000000000008235 1 0
1.900000000007906 1 0
1.800000000007489 1 0
1.700000000007074 1 0
1.600000000006657 1 0
1.500000000006241 1 0
1.400000000005825 1 0
1.300000000005409 1 0
1.200000000004993 1 0
1.100000000004577 1 0
1.000000000004161 1 0
0.9000000000037449 1 0
0.8000000000033287 1 0
0.7000000000029125 1 0
0.6000000000024963 1 0
0.5000000000020806 1 0
0.4000000000016639 1 0
0.3000000000012486 1 0
0.200000000000832 1 0
0.1000000000004162 1 0
2 1 0 434
101
102
103
104
105
106
107
108
109
110
111
112
113
114
115
116
117
118
119
120
121
122
123
124
125
126
127
128
129
130
131
132
133
134
135
136
137
138
139
140
141
142
143
144
145
146
147
148
149
150
151
152
153
154
155
156
157
158
159
160
161
162
163
164
165
166
167
168
169
170
171
172
173
174
175
176
177
178
179
180
181
182
183
184
185
186
187
188
189
190
191
192
193
194
195
196
197
198
199
200
201
202
203
204
205
206
207
208
209
210
211
212
213
214
215
216
217
218
219
220
221
222
223
224
225
226
227
228
229
230
231
232
233
234
235
236
237
238
239
240
241
242
243
244
245
246
247
248
249
250
251
252
253
254
255
256
257
258
259
260
261
262
263
264
265
266
267
268
269
270
271
272
273
274
275
276
277
278
279
280
281
282
283
284
285
286
287
288
289
290
291
292
293
294
295
296
297
298
299
300
301
302
303
304
305
306
307
308
309
310
311
312
313
314
315
316
317
318
319
320
321
322
323
324
325
326
327
328
329
330
331
332
333
334
335
336
337
338
339
340
341
342
343
344
345
346
347
348
349
350
351
352
353
354
355
356
357
358
359
360
361
362
363
364
365
366
367
368
369
370
371
372
373
374
375
376
377
378
379
380
381
382
383
384
385
386
387
388
389
390
391
392
393
394
395
396
397
398
399
400
401
402
403
404
405
406
407
408
409
410
411
412
413
414
415
416
417
418
419
420
421
422
423
424
425
426
427
428
429
430
431
432
433
434
435
436
437
438
439
440
441
442
443
444
445
446
447
448
449
450
451
452
453
454
455
456
457
458
459
460
461
462
463
464
465
466
467
468
469
470
471
472
473
474
475
476
477
478
479
480
481
482
483
484
485
486
487
488
489
490
491
492
493
494
495
496
497
498
499
500
501
502
503
504
505
506
507
508
509
510
511
512
513
514
515
516
517
518
519
520
521
522
523
524
525
526
527
528
529
530
531
532
533
534
3.349999999998767 0.9133974596214405 0
3.050000000000479 0.9133974596215532 0
2.750000000002455 0.9133974596217964 0
2.450000000004684 0.9133974596220473 0
2.150000000007281 0.9133974596221572 0
0.5517640260533253 0.07826250928749923 0
0.8499999999996529 0.0772625569816644 0
1.149999999999123 0.0772625569816329 0
1.454939272949764 0.07352571219736326 0
1.754939272948792 0.08050670339506596 0
2.04999999999481 0.08660254037838061 0
2.349999999995387 0.08660254037867388 0
2.644199393294168 0.08325355853796632 0
2.954527988928747 0.09111103395915096 0
1.850000000007848 0.9133974596213493 0
3.249531168266648 0.08810047135787866 0
1.550000000006205 0.9133974596211176 0
1.250000000004968 0.9133974596212637 0
0.9500000000039814 0.913397459621204 0
0.6500000000027044 0.9133974596211959 0
3.544028731727777 0.08923577788426885 0
3.913397459621566 0.5499999999989136 0
0.08477828132225257 0.5468402906297541 0
3.649999999998498 0.9133974596213245 0
0.350000000001166 0.9133974596214864 0
0.08660254037876844 0.3500000000013073 0
3.913397459621774 0.3499999999991412 0
0.3442582315906188 0.0968224019383724 0
0.08962961249558535 0.7586725654712804 0
3.916765605879734 0.7441661995525567 0
3.758672565470384 0.08962961249550863 0
0.08436963044179324 0.1538675134601647 0
3.915322795494597 0.150423736927784 0
0.1504237369286745 0.9153227954941947 0
3.84957626307125 0.9153227954940886 0
3.549999999998362 0.9133974596214173 0
3.599999999998394 0.8267949192428593 0
3.499999999998439 0.8267949192429405 0
3.549999999998417 0.7401923788645253 0
3.449999999998549 0.7401923788646594 0
3.499999999998492 0.653589838486223 0
3.399999999998657 0.6535898384861846 0
3.449999999998582 0.5669872981078792 0
3.349999999998693 0.566987298107863 0
3.399999999998659 0.4805148787596922 0
3.303887840677069 0.4826510904300675 0
3.492327272264188 0.4778141012205248 0
3.250647973445191 0.5673650202246154 0
3.2057887001456 0.4647132238974379 0
3.151072778931197 0.5644383294887029 0
3.099874093489003 0.478759946832505 0
3.050157812069652 0.5662916681886336 0
3.00000531759263 0.4799980175935342 0
2.950027188276744 0.5668069030987217 0
2.900005417644553 0.4802902352054053 0
2.850005434319951 0.5669414785189713 0
2.800001808660552 0.4803613673774305 0
2.750001207163284 0.5669757631176842 0
2.702470139112923 0.4818047821232531 0
2.650411891046052 0.5672220463417755 0
2.602949974835598 0.4853806661273162 0
2.55040022212897 0.5676099953259699 0
2.500558366161019 0.484615459674671 0
2.450159764715418 0.5677961979685817 0
2.402589324955366 0.4826505366478935 0
2.350458181612369 0.5674997445711547 0
2.30297755423743 0.4855679082528226 0
2.25000000000096 0.5669872981078844 0
2.20049625904051 0.4845428838258153 0
2.150082709841139 0.5676803191242763 0
2.100096494814505 0.4811932822484124 0
2.050029867443598 0.5672375556973713 0
2.000021060377319 0.4805612214142352 0
1.950008487971179 0.5670584183199612 0
1.90000492472576 0.4804260217123087 0
1.850002235450536 0.567006028806311 0
1.800001193363678 0.4803947568430891 0
1.75000057147008 0.5669920864096212 0
1.70000029413988 0.4803872222987257 0
1.650000144269353 0.5669885069196662 0
1.60000007306916 0.4803853699597627 0
1.550000036224082 0.5669876016146888 0
1.500000018216484 0.4803849103525085 0
1.450000009074387 0.566987374129617 0
1.400000004549383 0.4803847958371377 0
1.350000002271546 0.5669873171294417 0
1.30000000113769 0.4803847672512319 0
1.250000000569078 0.566987302864817 0
1.200000000285297 0.4803847601094999 0
1.15000000014322 0.5669872992974226 0
1.100000000072239 0.4803847583246631 0
1.050000000036685 0.5669872984054241 0
1.000000000018909 0.4803847578785392 0
0.9500000000099897 0.5669872981824158 0
0.9000000000054974 0.4803847577670391 0
0.8500000000032539 0.5669872981269664 0
0.8000000000020804 0.4803847577392354 0
0.750000000001511 0.5669872981131158 0
0.7000000000011626 0.4803847577323129 0
0.6500000000010195 0.5669872981096592 0
0.6000000000008805 0.480384757730606 0
0.5500000000008458 0.5669872981088075 0
0.5000000000007694 0.4803847577302054 0
0.4500000000007689 0.5669872981086164 0
0.4000000000007289 0.4803847577301177 0
3.596804230785912 0.6600010545196275 0
2.151834591989742 0.4027135163723159 0
1.850001019682345 0.3937907612002716 0
1.550000015215121 0.393782344826668 0
1.250000000238038 0.3937822193348762 0
2.455463888136091 0.407941792341404 0
0.9500000000048853 0.3937822173823813 0
0.6500000000008607 0.3937822173519894 0
2.750734003018612 0.3946761775302199 0
3.05963186022182 0.3955155334816661 0
0.4500000000006883 0.393782217351647 0
3.355815146296977 0.3992634175740235 0
3.200286792062101 0.6532279640691823 0
2.900005437099298 0.6535521360532182 0
0.5000000000008391 0.6535898384870773 0
0.4000000000007769 0.6535898384870725 0
2.600135352196002 0.6537327460615296 0
0.8000000000014864 0.6535898384903521 0
2.300076363603026 0.6536752462304254 0
1.100000000031622 0.6535898387335932 0
1.400000001893206 0.65358985432676 0
1.700000119292329 0.6535908380042341 0
2.000006392571962 0.6536434014532768 0
0.3518774126714757 0.392698292640825 0
0.4003129021124358 0.3069990228547462 0
0.3000000000006544 0.3071796769732719 0
0.3073691794504854 0.4747977331535556 0
3.698963702890441 0.8273932256570746 0
0.500052150352561 0.3071495679534094 0
3.349999999998684 0.7401923788646441 0
0.4500000000008495 0.7401923788654181 0
0.5500000000009078 0.7401923788654345 0
0.350000000000795 0.7401923788653688 0
0.3000000000007838 0.6535898384871031 0
0.4500000000005575 0.2205771365947682 0
0.5000000000009763 0.8267949192435511 0
0.2529006350953218 0.7385176964127128 0
0.2031944187435925 0.6533801434884814 0
0.5524783282014485 0.2252671707537633 0
1.950000000008063 0.9133974596216021 0
1.900000000008272 0.8267949192432205 0
1.800000000008051 0.8267949192424817 0
2.00000000000722 0.8267949192438083 0
1.85000000000863 0.7401923788639551 0
1.750000019886897 0.740192545450012 0
1.700000003319661 0.8267949470066071 0
0.2467287704822825 0.5548924057509436 0
1.949999999994886 0.086602540378279 0
2.002469636471012 0.1717792354722667 0
2.10041160607398 0.1729674398761455 0
1.905350879027895 0.1668716028925424 0
2.051075015873212 0.2568132893429534 0
2.152717406798256 0.2545739066942205 0
2.200521502141775 0.17229318820345 0
2.253009454629144 0.2573575080187841 0
2.300588492791865 0.172644746478808 0
2.350599657899826 0.2560116122271108 0
2.30554079170498 0.3322923129950499 0
3.913958817331231 0.6490276999245982 0
3.826888478861472 0.5998379499864939 0
3.826810512513041 0.4999729916635057 0
3.741320305953267 0.5480463729746106 0
3.740382965591456 0.4496698941056221 0
3.744935217688249 0.6417851621841776 0
3.654578220070642 0.5005284768978635 0
3.656276443898057 0.4000330618331894 0
3.740671910888199 0.3499504926558559 0
3.654117528059344 0.2999972590808379 0
3.576954943564513 0.3513104182878566 0
3.738685566678518 0.2528919270503545 0
3.570317685562437 0.2529566042542833 0
3.484853084514106 0.3124662364411138 0
3.488650224163945 0.1862101065007211 0
3.397023532673677 0.2465463071894541 0
3.397780460524182 0.15904711691398 0
3.303316979458483 0.1839958676250437 0
3.310161898821826 0.3096653121584299 0
3.219066094085148 0.2513065609303559 0
3.215926710404779 0.3537249402109919 0
3.12141549582851 0.310157150533407 0
3.130265275834863 0.2042736495436537 0
3.04737205583774 0.2499999999982311 0
3.046151572045754 0.1520123950774391 0
2.959000242318515 0.1990278880446343 0
2.867911411265297 0.1541526936606206 0
2.87614700222966 0.2482351451288707 0
2.789076839096849 0.205323801050932 0
2.787761467934008 0.1114647639582663 0
3.141191339049116 0.09646491267854709 0
0.08623038872254363 0.2506445855775948 0
0.1714066072600773 0.1983889855395736 0
0.1626841342278525 0.0917784111237835 0
0.2598076211359227 0.1500000000008154 0
0.1900472764129046 0.3041876759109484 0
0.1714658503262717 0.4076527380413191 0
0.08600862546414967 0.4507488381128831 0
0.1637190403362971 0.4992710165921064 0
0.2500706228222542 0.9137183489337489 0
3.749756660992785 0.9138180666691567 0
3.800413350119769 0.8358855837481272 0
0.3506829916559711 0.5640403119529014 0
0.6004217464261676 0.3079563311630474 0
0.6529529822477375 0.2229140966034775 0
3.913400058499985 0.449995498609688 0
3.300079486861788 0.653591186079707 0
3.250061046486597 0.7401322910605639 0
3.15005797309105 0.740122051827704 0
3.200007229079517 0.8267869980303558 0
3.100010867028435 0.8267818778682217 0
3.050011473353122 0.7401784841294092 0
3.000003723397326 0.826790429891371 0
2.950003438974918 0.7401830311112667 0
2.900000000000413 0.8267949192427786 0
2.950000620567323 0.9133967113963268 0
3.300011379260165 0.8267835844068913 0
3.249999999998874 0.9133974596206995 0
3.400001896542193 0.8267930301036999 0
3.450000316089063 0.9133971447649163 0
2.8000010270901 0.6535817554068373 0
2.850001650527581 0.7401831899868854 0
2.750000162634678 0.740191329790169 0
2.70009160668839 0.6536493365970666 0
2.650037853586665 0.740225938299696 0
2.5500147283834 0.7402073845626321 0
2.600008763663264 0.8268030134319551 0
2.500118344570928 0.6538547568783792 0
2.450022178826404 0.7402390328797694 0
2.400139138888247 0.6538762262322295 0
2.350000000001339 0.7401923788650671 0
2.250012727268477 0.7402066134888179 0
2.300002121214221 0.8267972916809297 0
2.400004050008963 0.8268030903188779 0
2.200028633452822 0.6537219490506847 0
2.150006893455963 0.7402167697297865 0
2.700007796648624 0.826801686668134 0
3.000034224962182 0.6534336768446336 0
3.651844243947949 0.1018144498724042 0
2.800001144025964 0.8267945060851289 0
1.350000000988167 0.3937822256200511 0
1.300000000205233 0.307179678681621 0
1.200000000001324 0.3071796769729123 0
1.400000000199753 0.3071796786357898 0
1.250000000035317 0.2238714045554218 0
1.150000000002873 0.2224351072348893 0
1.100000000001642 0.3074893387463258 0
1.050000000001785 0.2242326763392107 0
1.000000000002043 0.3078405438978012 0
0.9500000000016363 0.2245908053821684 0
1.000000000000809 0.1520664706018118 0
1.450000003331457 0.3937822452541162 0
1.500000003124979 0.3071797031463566 0
1.600000003057438 0.3071797025808594 0
1.552469637506747 0.222002990508682 0
1.650411606761328 0.2241090508570432 0
1.700068601637181 0.3077683336176891 0
1.752549671209012 0.2329650025692102 0
1.605419480328826 0.1478777190915808 0
1.800000000000959 0.3071796769723734 0
1.750011851470892 0.3938838280471814 0
1.901764147445566 0.3155386256380709 0
1.950213232409248 0.3971573157123616 0
0.8500000000018129 0.3937822173580434 0
0.9000000000021715 0.3079587662646086 0
0.8000000000015044 0.3073095251892549 0
0.8500000000016267 0.2225057522061216 0
0.7504921637090171 0.224603974909755 0
0.7500000000014131 0.3938038587239621 0
0.70064448206445 0.3083950006569144 0
0.705513463944533 0.1481120574499512 0
1.452881243281491 0.2255348965126259 0
1.350480207287389 0.2252467428119945 0
1.300080034553692 0.1521155815428162 0
0.3437143709406997 0.2101414130064417 0
1.750000000559511 0.9133974642484285 0
1.650000000650814 0.9133974650196788 0
1.600000000664968 0.8267949247696614 0
1.500000000115282 0.8267949201641558 0
1.55000000013179 0.7401923799388601 0
1.45000000035882 0.7401923818375776 0
1.40000000008267 0.8267949198922513 0
2.449999999995881 0.08660254037864931 0
2.400198025112225 0.1724790235595475 0
2.50003300418163 0.1730840712248854 0
2.452608084339118 0.2543136622355449 0
2.552909817893012 0.2574459477802225 0
2.598864176505612 0.1718523590915197 0
2.646608654265491 0.2524544003900314 0
2.606267498888769 0.3306879407313404 0
2.548849428994942 0.08579875487217012 0
3.831750486258701 0.6914167061473854 0
1.050000000004356 0.9133974596212164 0
1.000000000003892 0.8267949192426182 0
0.9000000000033551 0.8267949192425142 0
1.100000000004198 0.8267949192426427 0
0.9500000000027304 0.7401923788641579 0
0.8500000000035357 0.913397459621202 0
0.8000000000025382 0.8267949192425532 0
1.150000000004656 0.913397459621256 0
1.200000000004733 0.8267949192424809 0
0.7500000000029898 0.9133974596212244 0
0.7000000000021679 0.8267949192428437 0
1.150000000008246 0.7401923789053583 0
1.250000000004442 0.7401923788710458 0
2.10002574946179 0.6537820623199159 0
2.050257783285383 0.4000527213884114 0
2.050000000007301 0.9133974596221629 0
0.5500789827969879 0.3939066415468174 0
1.150000000099977 0.3938338284732771 0
0.4499999999991768 0.08660254037823467 0
3.913718348933962 0.250070622820762 0
1.050000000033283 0.3939525741171646 0
2.150155518032624 0.08641095147277558 0
3.562269419073092 0.5567697236331832 0
0.7000000000011247 0.6535898384882504 0
3.826909637726359 0.3999314795055124 0
2.956424506107679 0.3852978975726885 0
1.854184661802434 0.08310514261932725 0
2.848245839078226 0.3955290846868891 0
0.1010379499354686 0.6528684325018191 0
1.650013473098279 0.3938978002218144 0
3.643354547936099 0.7447901553712316 0
3.653597266033405 0.2069159998309724 0
0.9000000000032937 0.6535898385021862 0
0.6000000000009356 0.6535898384874167 0
1.300000000017925 0.8267949193524706 0
3.100270175744884 0.6529486957580442 0
2.250210918825406 0.0863252377556179 0
2.650002760054413 0.9133999365573684 0
3.826696307182085 0.3004740870051978 0
2.550001371874218 0.9133987180889658 0
2.850000294100168 0.9133972660576717 0
3.818333722477203 0.1849521601277776 0
2.500008515460155 0.8268081164840413 0
0.6500000000012052 0.740192378865306 0
0.6000000000015442 0.8267949192433408 0
1.450000000006169 0.913397459621705 0
3.150003016017999 0.9133939658568049 0
0.184885677419635 0.8183238284482599 0
0.2979761558900041 0.8251574385874606 0
2.200003623659651 0.8268017522316757 0
2.250000957483371 0.9133989938596421 0
1.350000000020494 0.9133974597479484 0
0.3996626926491047 0.8265220058008463 0
0.5500000000017731 0.9133974596216469 0
2.350001188120504 0.9133994725802493 0
0.4499437821094607 0.9133519740479219 0
1.500000007947307 0.6535899050554261 0
0.7500000000016085 0.7401923788655475 0
0.8500000000025021 0.7401923788678851 0
1.600000051311304 0.6535902683994579 0
1.000000000014502 0.6535898385920738 0
1.050000000010865 0.7401923789300739 0
1.200000000126333 0.653589839526202 0
1.300000000811759 0.6535898452640624 0
1.350000000528137 0.7401923832573611 0
1.95000106543382 0.7402013060253904 0
1.650000032434491 0.7401926505948053 0
1.900003030239621 0.6536152286587807 0
1.800000996058015 0.6535981843654856 0
2.100001752857112 0.8268001232189484 0
2.050006975631311 0.7402397636651876 0
3.442587915077508 0.4014153871685787 0
2.798167177728591 0.3056977969292001 0
2.960321921240284 0.2887970822059686 0
2.701292607323059 0.1629646603063649 0
0.08323753396021573 0.85087440039222 0
3.850875578252508 0.08324544856824954 0
3.908486021579427 0.8426877384012942 0
3.747738145989747 0.7402498539410869 0
3.448422258094544 0.08479814553037557 0
3.142080906235721 0.3983543082671973 0
3.346668586175813 0.08430704553566876 0
0.2612644760254232 0.3872786690865739 0
3.661319086389614 0.5940511235340649 0
3.581927962265426 0.44999999999872 0
0.2529951751500518 0.2339795502862102 0
3.208674171338851 0.1648282924270958 0
2.352761926504763 0.4081074881831825 0
1.502618272344023 0.1482530758170119 0
1.252482975566954 0.07686096824491159 0
0.9524696364753731 0.07685278308807181 0
2.653478749887286 0.4044307473110345 0
0.6021181334074672 0.1491637678171663 0
0.7509189106568597 0.0743252918374296 0
1.050411606078629 0.07665366882367232 0
1.351250380510822 0.07604041070923513 0
1.65172645887767 0.07482692651303299 0
1.802837414165007 0.1595885660657041 0
1.951776613136769 0.2463817965033427 0
2.202183707520733 0.3312133311219215 0
2.502874881541824 0.3317636203251762 0
2.696440047974645 0.3225929145677917 0
3.58019810386312 0.1671424049519334 0
0.4064119972685124 0.1535741051022174 0
0.5021287474884146 0.1522412049889415 0
0.2500000000006311 0.06698729810863591 0
2.101344750911532 0.3287186746576696 0
2.000390642801338 0.325912163801562 0
2.252632471833026 0.4074062401251846 0
1.852379787497534 0.2380875451068739 0
1.402041568487864 0.1501194032651745 0
1.702980650715106 0.1533123280819395 0
1.100017857407919 0.153043854769081 0
2.553598893241764 0.4074700377518237 0
0.8003004190241869 0.1527904513870543 0
0.6517190890099203 0.07497727106534105 0
0.9002355489382328 0.1523479918994075 0
1.200156758234933 0.1527166514766216 0
1.552450580748729 0.07408057226983147 0
2.4033082050211 0.3317384147179113 0
3.049999999997496 0.06668968696729098 0
2.862040173624399 0.07134569831560758 0
0.1663296587379206 0.7243525332645107 0
3.725917418986501 0.1672873957874346 0
0.1622595264189821 0.5810417437713465 0
3.399869493754981 0.3314526642734286 0
0.07320508075719222 0.9267949192428077 0
0.07320508075713303 0.07320508075729501 0
3.926794919242782 0.9267949192428224 0
3.926794919243229 0.07320508075664886 0
3.274625725659806 0.4058843866543008 0
2.887861289276888 0.3247114013047234 0
2.725479104929554 0.249179203182024 0
3.031856247798089 0.3221987108471072 0
0.2305814917386951 0.4597196900211408 0
3.520394314654165 0.4054292941391812 0
3.678830245757924 0.6761754699100377 0
3.844172580441534 0.7699010078863978 0
2.721885723687348 0.06979305292438576 0
$EndNodes
$Elements
5 1066 1 1066
1 1 1 10
1 4 5 
2 5 6 
3 6 7 
4 7 8 
5 8 9 
6 9 10 
7 10 11 
8 11 12 
9 12 13 
10 13 1 
1 2 1 40
11 1 14 
12 14 15 
13 15 16 
14 16 17 
15 17 18 
16 18 19 
17 19 20 
18 20 21 
19 21 22 
20 22 23 
21 23 24 
22 24 25 
23 25 26 
24 26 27 
25 27 28 
26 28 29 
27 29 30 
28 30 31 
29 31 32 
30 32 33 
31 33 34 
32 34 35 
33 35 36 
34 36 37 
35 37 38 
36 38 39 
37 39 40 
38 40 41 
39 41 42 
40 42 43 
41 43 44 
42 44 45 
43 45 46 
44 46 47 
45 47 48 
46 48 49 
47 49 50 
48 50 51 
49 51 52 
50 52 2 
1 3 1 10
51 2 53 
52 53 54 
53 54 55 
54 55 56 
55 56 57 
56 57 58 
57 58 59 
58 59 60 
59 60 61 
60 61 3 
1 4 1 40
61 3 62 
62 62 63 
63 63 64 
64 64 65 
65 65 66 
66 66 67 
67 67 68 
68 68 69 
69 69 70 
70 70 71 
71 71 72 
72 72 73 
73 73 74 
74 74 75 
75 75 76 
76 76 77 
77 77 78 
78 78 79 
79 79 80 
80 80 81 
81 81 82 
82 82 83 
83 83 84 
84 84 85 
85 85 86 
86 86 87 
87 87 88 
88 88 89 
89 89 90 
90 90 91 
91 91 92 
92 92 93 
93 93 94 
94 94 95 
95 95 96 
96 96 97 
97 97 98 
98 98 99 
99 99 100 
100 100 4 
2 1 2 966
101 298 128 378 
102 378 128 499 
103 129 443 471 
104 437 131 472 
105 443 129 518 
106 131 437 519 
107 121 278 475 
108 299 231 478 
109 281 116 477 
110 278 121 498 
111 284 149 476 
112 149 284 526 
113 486 23 490 
114 485 26 491 
115 354 486 490 
116 377 485 491 
117 270 418 480 
118 45 116 294 
119 14 15 297 
120 418 270 479 
121 114 288 289 
122 231 299 481 
123 116 281 482 
124 215 285 476 
125 44 45 294 
126 285 215 529 
127 300 299 478 
128 280 281 477 
129 47 475 477 
130 14 297 523 
131 114 289 290 
132 278 280 475 
133 418 147 480 
134 135 305 473 
135 443 134 471 
136 133 437 472 
137 424 243 518 
138 427 342 519 
139 294 116 482 
140 342 427 498 
141 475 280 477 
142 288 114 516 
143 473 305 533 
144 110 493 507 
145 256 494 505 
146 488 244 500 
147 258 495 502 
148 389 496 515 
149 29 492 514 
150 20 489 511 
151 487 161 509 
152 484 375 506 
153 483 167 504 
154 298 378 481 
155 423 214 468 
156 290 289 291 
157 206 418 479 
158 243 424 520 
159 129 424 518 
160 342 131 519 
161 277 274 531 
162 467 277 531 
163 293 292 470 
164 282 217 526 
165 252 302 530 
166 393 392 497 
167 290 291 292 
168 128 298 501 
169 232 252 530 
170 496 211 515 
171 492 362 514 
172 489 374 511 
173 109 484 506 
174 393 487 509 
175 263 483 504 
176 106 488 500 
177 495 207 502 
178 493 361 507 
179 494 365 505 
180 290 292 293 
181 250 251 462 
182 228 461 463 
183 227 250 462 
184 461 249 463 
185 103 340 343 
186 104 337 438 
187 105 445 446 
188 400 398 454 
189 336 337 450 
190 446 336 450 
191 408 459 460 
192 330 340 433 
193 314 313 442 
194 435 104 438 
195 445 336 446 
196 330 433 435 
197 330 435 438 
198 340 103 433 
199 113 391 394 
200 340 326 343 
201 314 102 316 
202 459 226 460 
203 343 318 436 
204 123 301 302 
205 389 388 390 
206 463 249 464 
207 316 102 319 
208 68 69 321 
209 249 250 464 
210 262 261 387 
211 320 101 321 
212 101 68 321 
213 9 10 301 
214 308 371 373 
215 261 112 387 
216 101 320 322 
217 337 104 450 
218 102 314 442 
219 317 318 325 
220 371 308 374 
221 387 388 389 
222 219 317 325 
223 251 380 381 
224 84 85 380 
225 172 170 409 
226 103 343 436 
227 235 140 322 
228 407 399 457 
229 123 9 301 
230 337 332 438 
231 224 334 335 
232 318 319 436 
233 262 387 389 
234 318 316 319 
235 224 333 334 
236 219 154 341 
237 317 219 341 
238 170 338 409 
239 391 388 394 
240 251 381 462 
241 166 164 333 
242 65 66 136 
243 320 235 322 
244 224 166 333 
245 170 168 338 
246 112 261 432 
247 173 175 366 
248 326 325 343 
249 406 120 440 
250 208 363 365 
251 363 208 364 
252 85 117 380 
253 120 95 449 
254 213 307 373 
255 140 138 322 
256 370 369 371 
257 428 400 454 
258 353 352 368 
259 325 318 343 
260 208 177 364 
261 352 212 368 
262 379 84 380 
263 228 172 409 
264 307 308 373 
265 164 331 333 
266 154 152 341 
267 71 72 319 
268 136 66 323 
269 36 112 432 
270 152 150 431 
271 177 179 364 
272 368 369 370 
273 322 138 323 
274 102 71 319 
275 439 406 440 
276 334 332 337 
277 164 162 331 
278 313 321 442 
279 371 369 373 
280 251 247 379 
281 138 136 323 
282 66 67 323 
283 353 368 370 
284 441 87 447 
285 122 264 265 
286 168 224 338 
287 57 58 122 
288 10 126 301 
289 122 58 264 
290 126 11 295 
291 212 352 416 
292 175 208 366 
293 265 264 395 
294 179 181 425 
295 173 366 410 
296 269 265 395 
297 126 295 299 
298 67 101 323 
299 252 232 306 
300 135 304 305 
301 222 328 329 
302 390 388 391 
303 341 152 431 
304 364 179 425 
305 335 334 336 
306 81 82 245 
307 125 98 303 
308 124 65 136 
309 218 311 312 
310 101 322 323 
311 124 136 137 
312 251 379 380 
313 94 120 405 
314 221 239 306 
315 247 115 379 
316 137 136 138 
317 57 122 309 
318 80 81 411 
319 222 327 328 
320 193 212 416 
321 33 34 111 
322 295 296 299 
323 324 326 327 
324 405 120 406 
325 307 213 412 
326 142 235 310 
327 204 221 306 
328 266 268 420 
329 218 310 311 
330 402 405 406 
331 127 56 309 
332 105 80 411 
333 327 326 328 
334 209 355 356 
335 126 300 301 
336 301 300 302 
337 10 11 126 
338 162 222 331 
339 245 246 248 
340 135 63 304 
341 372 213 373 
342 310 235 311 
343 328 326 340 
344 369 367 372 
345 209 356 357 
346 158 324 327 
347 224 335 338 
348 225 407 457 
349 12 132 295 
350 99 134 303 
351 56 57 309 
352 311 235 320 
353 59 130 264 
354 345 348 376 
355 376 348 377 
356 239 242 243 
357 367 197 372 
358 58 59 264 
359 99 100 134 
360 309 266 420 
361 239 252 306 
362 295 132 296 
363 312 311 313 
364 208 365 366 
365 324 219 325 
366 380 117 381 
367 304 233 305 
368 126 299 300 
369 388 386 394 
370 124 233 304 
371 33 111 253 
372 329 328 330 
373 144 142 310 
374 50 131 342 
375 245 115 246 
376 296 132 297 
377 296 297 298 
378 321 69 442 
379 64 65 124 
380 118 403 404 
381 205 204 306 
382 156 219 324 
383 122 265 266 
384 369 372 373 
385 386 38 394 
386 93 94 405 
387 209 183 355 
388 313 320 321 
389 213 201 412 
390 239 238 242 
391 336 334 337 
392 312 313 314 
393 232 205 306 
394 221 238 239 
395 64 124 304 
396 11 12 295 
397 122 266 309 
398 344 210 345 
399 12 13 132 
400 390 391 392 
401 355 347 356 
402 112 386 387 
403 97 98 125 
404 390 392 393 
405 150 148 218 
406 357 356 358 
407 350 413 416 
408 137 138 139 
409 403 399 404 
410 324 325 326 
411 187 210 344 
412 313 311 320 
413 347 345 376 
414 253 111 254 
415 156 154 219 
416 396 119 397 
417 344 347 355 
418 181 209 425 
419 92 93 401 
420 330 328 340 
421 162 160 222 
422 118 89 403 
423 158 156 324 
424 255 111 417 
425 150 218 431 
426 408 407 458 
427 229 205 232 
428 239 243 252 
429 381 382 383 
430 160 158 327 
431 396 399 403 
432 404 399 407 
433 387 386 388 
434 142 140 235 
435 352 350 416 
436 82 83 115 
437 121 49 342 
438 98 99 303 
439 381 117 382 
440 50 51 131 
441 397 398 400 
442 260 262 263 
443 345 346 348 
444 191 193 416 
445 91 119 396 
446 148 144 310 
447 212 367 368 
448 35 36 432 
449 207 171 410 
450 346 210 413 
451 359 358 362 
452 222 160 327 
453 356 347 375 
454 401 93 405 
455 216 234 412 
456 344 345 347 
457 203 202 204 
458 149 148 150 
459 39 113 394 
460 124 137 233 
461 351 353 354 
462 193 195 212 
463 283 282 284 
464 350 346 413 
465 168 166 224 
466 185 187 344 
467 187 189 210 
468 345 210 346 
469 112 37 386 
470 375 347 376 
471 183 185 355 
472 234 230 240 
473 396 397 399 
474 397 119 398 
475 222 329 331 
476 234 307 412 
477 357 358 359 
478 81 245 411 
479 82 115 245 
480 195 197 367 
481 246 247 249 
482 358 356 375 
483 404 407 408 
484 234 240 244 
485 181 183 209 
486 383 382 384 
487 259 417 432 
488 199 201 213 
489 63 64 304 
490 383 384 452 
491 264 130 395 
492 197 199 372 
493 171 173 410 
494 185 344 355 
495 48 49 121 
496 348 346 349 
497 368 367 369 
498 331 329 332 
499 151 150 152 
500 212 195 367 
501 139 138 140 
502 218 148 310 
503 42 43 114 
504 45 46 116 
505 36 37 112 
506 39 40 113 
507 199 213 372 
508 261 259 432 
509 315 314 316 
510 49 50 342 
511 90 396 403 
512 216 230 234 
513 203 204 205 
514 216 229 230 
515 165 164 166 
516 153 152 154 
517 175 177 208 
518 146 144 148 
519 127 309 420 
520 115 83 379 
521 155 154 156 
522 189 191 413 
523 281 279 282 
524 62 63 135 
525 283 284 285 
526 249 247 250 
527 91 92 119 
528 85 86 117 
529 88 89 118 
530 94 95 120 
531 90 91 396 
532 317 316 318 
533 163 162 164 
534 268 272 420 
535 157 156 158 
536 38 39 394 
537 253 254 256 
538 333 332 334 
539 37 38 386 
540 159 158 160 
541 204 220 221 
542 161 160 162 
543 216 205 229 
544 281 282 283 
545 259 255 417 
546 307 244 308 
547 89 90 403 
548 360 359 361 
549 83 84 379 
550 254 255 257 
551 199 200 201 
552 398 401 402 
553 119 92 401 
554 203 205 216 
555 349 350 351 
556 197 198 199 
557 221 236 238 
558 351 352 353 
559 17 18 414 
560 146 148 149 
561 59 60 130 
562 195 196 197 
563 201 203 412 
564 193 194 195 
565 191 192 193 
566 165 166 167 
567 189 190 191 
568 187 188 189 
569 167 166 168 
570 185 186 187 
571 240 230 378 
572 254 111 255 
573 257 255 258 
574 118 404 430 
575 16 17 128 
576 210 189 413 
577 149 150 151 
578 183 184 185 
579 312 314 315 
580 230 229 231 
581 201 202 203 
582 181 182 183 
583 357 359 360 
584 203 216 412 
585 206 141 418 
586 139 206 426 
587 230 231 378 
588 360 361 363 
589 234 244 307 
590 179 180 181 
591 163 164 165 
592 151 152 153 
593 413 191 416 
594 201 200 202 
595 199 198 200 
596 141 140 142 
597 398 119 401 
598 153 154 155 
599 319 72 436 
600 331 332 333 
601 349 346 350 
602 177 178 179 
603 266 265 267 
604 169 171 207 
605 384 382 385 
606 161 162 163 
607 286 285 287 
608 155 156 157 
609 197 196 198 
610 139 141 206 
611 204 202 220 
612 288 287 289 
613 18 106 414 
614 402 401 405 
615 351 350 352 
616 157 158 159 
617 315 316 317 
618 195 194 196 
619 159 160 161 
620 193 192 194 
621 143 145 147 
622 191 190 192 
623 167 168 169 
624 175 176 177 
625 128 17 414 
626 408 458 459 
627 189 188 190 
628 187 186 188 
629 338 335 339 
630 185 184 186 
631 272 275 434 
632 280 279 281 
633 183 182 184 
634 143 142 144 
635 267 265 269 
636 55 56 127 
637 18 19 106 
638 143 147 418 
639 250 247 251 
640 181 180 182 
641 260 261 262 
642 24 25 108 
643 27 28 109 
644 30 31 110 
645 21 22 107 
646 246 115 247 
647 173 174 175 
648 139 140 141 
649 137 139 426 
650 283 285 286 
651 258 259 260 
652 278 277 279 
653 141 143 418 
654 179 178 180 
655 145 144 146 
656 268 271 272 
657 360 363 364 
658 268 267 270 
659 141 142 143 
660 266 267 268 
661 34 35 417 
662 67 68 101 
663 73 74 103 
664 76 77 104 
665 276 274 277 
666 79 80 105 
667 70 71 102 
668 32 33 253 
669 177 176 178 
670 273 271 274 
671 286 287 288 
672 31 32 422 
673 143 144 145 
674 209 357 425 
675 145 146 217 
676 198 196 223 
677 175 174 176 
678 54 55 415 
679 258 255 259 
680 171 172 173 
681 192 190 225 
682 53 54 133 
683 268 270 271 
684 186 184 226 
685 200 198 419 
686 272 273 275 
687 278 279 280 
688 385 441 447 
689 169 168 170 
690 272 271 273 
691 180 178 227 
692 151 153 215 
693 233 137 426 
694 8 9 123 
695 273 274 276 
696 163 165 211 
697 169 170 171 
698 276 277 278 
699 221 220 236 
700 357 360 425 
701 286 288 294 
702 157 159 214 
703 173 172 174 
704 110 31 422 
705 174 172 228 
706 260 259 261 
707 315 317 341 
708 111 34 417 
709 55 127 415 
710 153 155 421 
711 198 223 419 
712 236 237 241 
713 32 253 422 
714 440 120 449 
715 171 170 172 
716 253 256 422 
717 404 408 430 
718 7 8 424 
719 202 200 429 
720 360 364 425 
721 456 225 457 
722 196 194 428 
723 236 220 237 
724 155 157 423 
725 218 312 431 
726 200 419 429 
727 417 35 432 
728 133 54 415 
729 223 196 428 
730 220 202 429 
731 215 153 421 
732 6 7 129 
733 74 75 433 
734 402 406 453 
735 103 74 433 
736 245 248 411 
737 157 214 423 
738 237 220 429 
739 384 226 452 
740 72 73 436 
741 421 155 423 
742 338 339 409 
743 275 273 427 
744 312 315 431 
745 273 276 427 
746 76 104 435 
747 420 272 434 
748 8 123 424 
749 315 341 431 
750 398 402 454 
751 332 329 438 
752 75 76 435 
753 118 430 447 
754 433 75 435 
755 129 7 424 
756 127 420 434 
757 241 237 440 
758 430 385 447 
759 415 127 434 
760 382 117 441 
761 339 465 466 
762 69 70 442 
763 73 103 436 
764 117 86 441 
765 383 452 455 
766 329 330 438 
767 434 275 437 
768 133 415 437 
769 415 434 437 
770 429 419 439 
771 402 453 454 
772 125 303 444 
773 237 429 439 
774 449 96 451 
775 87 88 447 
776 86 87 441 
777 95 96 449 
778 79 105 446 
779 385 382 441 
780 250 227 464 
781 237 439 440 
782 465 248 466 
783 303 134 443 
784 96 97 451 
785 70 102 442 
786 104 77 450 
787 443 242 444 
788 430 408 460 
789 242 238 444 
790 236 241 448 
791 226 184 452 
792 455 227 462 
793 448 241 451 
794 335 336 445 
795 339 335 445 
796 125 444 448 
797 303 443 444 
798 444 238 448 
799 78 79 446 
800 399 397 457 
801 88 118 447 
802 241 449 451 
803 180 227 455 
804 192 225 456 
805 78 446 450 
806 238 236 448 
807 407 225 458 
808 428 194 456 
809 77 78 450 
810 400 456 457 
811 241 440 449 
812 439 419 453 
813 225 190 458 
814 186 226 459 
815 400 428 456 
816 97 125 451 
817 406 439 453 
818 125 448 451 
819 228 409 466 
820 184 182 452 
821 246 249 461 
822 174 228 463 
823 226 384 460 
824 452 182 455 
825 227 178 464 
826 383 455 462 
827 105 411 465 
828 419 223 453 
829 453 223 454 
830 384 385 460 
831 223 428 454 
832 182 180 455 
833 194 192 456 
834 385 430 460 
835 397 400 457 
836 339 445 465 
837 190 188 458 
838 445 105 465 
839 188 186 459 
840 458 188 459 
841 248 246 461 
842 381 383 462 
843 461 228 466 
844 176 174 463 
845 176 463 464 
846 178 176 464 
847 411 248 465 
848 248 461 466 
849 409 339 466 
850 284 282 526 
851 145 217 467 
852 147 145 467 
853 121 342 498 
854 291 289 469 
855 487 393 497 
856 292 291 468 
857 392 391 470 
858 41 293 534 
859 5 6 471 
860 51 52 472 
861 60 61 473 
862 289 287 469 
863 305 233 474 
864 47 48 475 
865 423 468 527 
866 149 151 476 
867 391 113 470 
868 215 421 529 
869 285 284 476 
870 229 232 478 
871 46 47 477 
872 267 269 479 
873 293 470 534 
874 6 129 471 
875 131 51 472 
876 130 60 473 
877 274 271 480 
878 299 296 481 
879 281 283 482 
880 286 294 482 
881 421 469 529 
882 165 167 483 
883 358 375 484 
884 308 244 488 
885 25 26 485 
886 22 23 486 
887 159 161 487 
888 20 21 489 
889 23 24 490 
890 26 27 491 
891 29 30 492 
892 258 260 495 
893 256 254 494 
894 110 422 493 
895 389 390 496 
896 276 278 498 
897 16 128 501 
898 371 374 510 
899 366 365 503 
900 363 361 505 
901 376 377 506 
902 359 362 507 
903 351 354 508 
904 169 207 504 
905 163 211 509 
906 377 348 513 
907 106 19 511 
908 354 353 512 
909 109 28 514 
910 263 262 515 
911 269 395 474 
912 233 426 474 
913 114 43 516 
914 242 443 518 
915 437 275 519 
916 293 41 517 
917 424 123 520 
918 378 231 481 
919 114 290 517 
920 4 5 522 
921 13 1 523 
922 1 14 523 
923 297 132 523 
924 100 4 522 
925 3 62 524 
926 61 3 524 
927 2 53 525 
928 52 2 525 
929 146 149 526 
930 40 41 534 
931 48 121 475 
932 217 282 521 
933 287 285 529 
934 151 215 476 
935 44 294 516 
936 305 474 533 
937 468 291 527 
938 42 114 517 
939 282 279 521 
940 470 113 534 
941 116 46 477 
942 231 229 478 
943 130 473 533 
944 270 267 479 
945 474 395 533 
946 474 426 532 
947 269 474 532 
948 271 270 480 
949 297 15 501 
950 302 252 520 
951 294 288 516 
952 374 489 510 
953 485 377 513 
954 484 109 514 
955 483 263 515 
956 486 354 512 
957 365 494 503 
958 488 106 511 
959 377 491 506 
960 354 490 508 
961 361 493 505 
962 362 492 507 
963 207 495 504 
964 211 496 509 
965 296 298 481 
966 283 286 482 
967 41 42 517 
968 211 165 483 
969 362 358 484 
970 108 25 485 
971 107 22 486 
972 214 159 487 
973 374 308 488 
974 21 107 489 
975 24 108 490 
976 27 109 491 
977 30 110 492 
978 422 256 493 
979 254 257 494 
980 260 263 495 
981 390 393 496 
982 252 243 520 
983 427 276 498 
984 510 107 512 
985 508 108 513 
986 257 502 503 
987 257 258 502 
988 244 240 500 
989 240 378 499 
990 240 499 500 
991 15 16 501 
992 298 297 501 
993 128 414 499 
994 414 106 500 
995 499 414 500 
996 207 410 502 
997 502 410 503 
998 410 366 503 
999 365 363 505 
1000 167 169 504 
1001 375 376 506 
1002 361 359 507 
1003 349 351 508 
1004 370 371 510 
1005 161 163 509 
1006 370 510 512 
1007 349 508 513 
1008 19 20 511 
1009 353 370 512 
1010 348 349 513 
1011 28 29 514 
1012 262 389 515 
1013 43 44 516 
1014 290 293 517 
1015 279 277 521 
1016 421 423 527 
1017 243 242 518 
1018 275 427 519 
1019 277 467 521 
1020 468 214 497 
1021 123 302 520 
1022 467 217 521 
1023 472 52 525 
1024 473 61 524 
1025 5 471 522 
1026 469 421 527 
1027 292 468 528 
1028 479 269 532 
1029 392 470 528 
1030 134 100 522 
1031 132 13 523 
1032 62 135 524 
1033 53 133 525 
1034 217 146 526 
1035 214 487 497 
1036 274 480 531 
1037 302 300 530 
1038 478 232 530 
1039 291 469 527 
1040 426 206 532 
1041 395 130 533 
1042 113 40 534 
1043 147 467 531 
1044 133 472 525 
1045 471 134 522 
1046 135 473 524 
1047 470 292 528 
1048 469 287 529 
1049 211 483 515 
1050 362 484 514 
1051 108 485 513 
1052 107 486 512 
1053 374 488 511 
1054 489 107 510 
1055 490 108 508 
1056 491 109 506 
1057 492 110 507 
1058 493 256 505 
1059 494 257 503 
1060 495 263 504 
1061 496 393 509 
1062 468 497 528 
1063 206 479 532 
1064 300 478 530 
1065 480 147 531 
1066 497 392 528 
$EndElements
