$MeshFormat
2.2 0 8
$EndMeshFormat
$PhysicalNames
5
1 2 "sub_mesh_1"
1 3 "line_41"
1 4 "line_23"
1 9 "sub_mesh_2"
2 1 "sub_mesh_0"
$EndPhysicalNames
$Nodes
155
1 0 0.26 0
2 1 0.26 0
3 0.0003334444814938313 0.009999802476901685 0
4 1 0.01 0
5 0.04784420013878563 0.2562016608384193 0
6 0.09513862344739045 0.2477930744671781 0
7 0.1426749029690405 0.2410052689718363 0
8 0.1906584312428604 0.2410052690442018 0
9 0.2381947114353736 0.2477930747520385 0
10 0.2854891359006828 0.2562016612385746 0
11 0.333333334309217 0.26 0
12 0.3811775326980038 0.2562016609528875 0
13 0.4284719569485902 0.2477930744363161 0
14 0.4760082374437319 0.2410052688778254 0
15 0.5239917651391486 0.2410052690905711 0
16 0.5715280453515474 0.2477930748591928 0
17 0.6188224693065516 0.2562016612493005 0
18 0.6666666674941506 0.26 0
19 0.7145108656156228 0.256201661014359 0
20 0.7618052898505064 0.2477930745156314 0
21 0.8093415696850964 0.2410052689677683 0
22 0.857325097719045 0.2410052690285123 0
23 0.9048613769735971 0.247793074544576 0
24 0.9521558001155763 0.2562016608760317 0
25 0.04815833461882048 0.00615510158825075 0
26 0.09543534410956216 -0.002261442179338288 0
27 0.1429597586090803 -0.009018064281221361 0
28 0.1909274420982897 -0.008972457505967583 0
29 0.2384445725193986 -0.002160964548672561 0
30 0.2857247575995248 0.006236441182155774 0
31 0.3335556307069142 0.009999912210803824 0
32 0.3813817239156139 0.006171421471423119 0
33 0.4286593584420663 -0.00224136512108431 0
34 0.4761823134934376 -0.009009020974751052 0
35 0.5241500082148441 -0.008981656732636 0
36 0.571668593521279 -0.002181077969103243 0
37 0.6189481322025554 0.006220225481212065 0
38 0.6667778159051201 0.009999978052145924 0
39 0.7146051093862639 0.006187715513150795 0
40 0.7618833732877784 -0.002221278612710477 0
41 0.8094048691733822 -0.008999938479938314 0
42 0.8573725716567986 -0.008990817055040321 0
43 0.9048926108499245 -0.00220118276840145 0
44 0.9521715076925973 0.006203983286441399 0
45 1 0.05999999999989004 0
46 1 0.1099999999997482 0
47 1 0.1599999999997397 0
48 1 0.2099999999998753 0
49 6.668889629853479e-05 0.2099999604955539 0
50 0.0001333777925972026 0.159999920991008 0
51 0.000200066688896021 0.1099998814863492 0
52 0.0002667555851949262 0.05999984198162545 0
53 0.8338890574687712 0.03233095509610662 0
54 0.4997098571228452 0.0321946456777963 0
55 0.1669041037277306 0.03254597156875226 0
56 0.3076166817489835 0.04607934912032424 0
57 0.6395896123073896 0.04953182290807457 0
58 0.7280868862552515 0.2136751056132936 0
59 0.4001285723982927 0.2089987531382034 0
60 0.2175335182604406 0.2029187930301199 0
61 0.553680285424167 0.2027955959070425 0
62 0.9581316314052228 0.133008407564165 0
63 0.04074772115020468 0.1327508948469443 0
64 0.8277139330812645 0.1964042698689255 0
65 0.742243265737082 0.0442926894578994 0
66 0.4103916068310527 0.04142946926796919 0
67 0.6460340262490138 0.2166665395909206 0
68 0.3120871882231467 0.2168026238871651 0
69 0.1135670566453554 0.2015924906930483 0
70 0.0759133006119936 0.0396160258122161 0
71 0.924336832133333 0.03991520450377716 0
72 0.9311398583653647 0.210414822389239 0
73 0.06308055230206971 0.2078217418664549 0
74 0.5053480838060974 0.1968594777998286 0
75 0.536118066687418 0.1570122834270715 0
76 0.4889067862163412 0.1532776446159114 0
77 0.585335246170938 0.1646792237088222 0
78 0.5692041804182552 0.1187464283943336 0
79 0.6198098884603735 0.1283175642360307 0
80 0.4518609263905415 0.19363104977932 0
81 0.4129686432534341 0.1597749673782221 0
82 0.3686765524385547 0.1721090292519839 0
83 0.3768378197460483 0.1251007901308365 0
84 0.3303560913928269 0.1389325120422915 0
85 0.4231838561034205 0.1157850168361556 0
86 0.1662945405878015 0.20047203585703 0
87 0.1400204455100966 0.1576239058654146 0
88 0.1946601717520632 0.1585440314452504 0
89 0.2451892113684005 0.1628087253956276 0
90 0.2230994708586563 0.1165130378219187 0
91 0.1737129116134371 0.1136538667624589 0
92 0.1231506077852868 0.1145274043240601 0
93 0.2799385118424656 0.1192880344279595 0
94 0.2486172417741653 0.07440383280349525 0
95 0.6904446463261272 0.05057726357209134 0
96 0.7216639353671894 0.09022403389819829 0
97 0.7727805135772418 0.08344782193970066 0
98 0.754784314898203 0.1288397202922559 0
99 0.7026354115165981 0.133758257656682 0
100 0.8040588024882293 0.1231830513011658 0
101 0.3583502185767062 0.04570073756404908 0
102 0.5886299744364329 0.03965236081445989 0
103 0.7867689709744725 0.1678111568767596 0
104 0.8814909791057666 0.2001502470862371 0
105 0.8604055630210491 0.1557519523749292 0
106 0.6636858569205762 0.09616529605307007 0
107 0.9120952262855558 0.1566944834369373 0
108 0.8814688134988059 0.1119551596954706 0
109 0.5150074879969171 0.1083797900237079 0
110 0.08492953872629856 0.156458656292044 0
111 0.04882636077612593 0.08116602419128345 0
112 0.9514982959444053 0.08146876222456981 0
113 0.195597552656128 0.07355944911840344 0
114 0.5544315410561036 0.07373295638399489 0
115 0.8164353654811611 0.07459140334005515 0
116 0.6324332609968684 0.1727082676694531 0
117 0.2656206614744902 0.2094813201332736 0
118 0.2952302036588972 0.1703630424961159 0
119 0.6001493264563039 0.210476430726538 0
120 0.6850652256647978 0.1810348102524276 0
121 0.3273323543352618 0.0895697202685902 0
122 0.8780454210660547 0.03271597911838751 0
123 0.789287300507975 0.03605879399414402 0
124 0.4556766124296742 0.03307951497647502 0
125 0.478429136282463 0.07611086174023023 0
126 0.1234922598019221 0.03435178785690117 0
127 0.1500191795620191 0.07391982481654602 0
128 0.6080139185848057 0.08290627393494153 0
129 0.3898233139224113 0.08095455304518391 0
130 0.2161497973589055 0.03389596747020991 0
131 0.5420256427274637 0.03347435236603886 0
132 0.6612118916518306 0.1413332044799976 0
133 0.354632674682181 0.2177556410382167 0
134 0.6878295015561261 0.2233448959343628 0
135 0.08115859115117133 0.1110921917468724 0
136 0.7378879500144818 0.1705924454156632 0
137 0.77684813378502 0.2075722922660107 0
138 0.9614819185850205 0.1809708416371136 0
139 0.8994449806857185 0.07290567008744718 0
140 0.2603068654861683 0.03717384268338821 0
141 0.923624014331877 0.1099999999997433 0
142 0.03696818107689649 0.04363728246024844 0
143 0.9633447212457291 0.04367327289435128 0
144 0.1026301482442353 0.07428719149285147 0
145 0.8398348471238721 0.1142474842228881 0
146 0.4386867848278838 0.07452062833418444 0
147 0.4693689990613692 0.1143637303204314 0
148 0.2869695838867468 0.08037955868955751 0
149 0.4492502441471093 0.1469984884805676 0
150 0.3308134979182347 0.1835049904440181 0
151 0.8581864142207306 0.07312444192672585 0
152 0.03651681895561368 0.1721245698193704 0
153 0.8218164554920029 0.1549777816820288 0
154 0.5151516557100273 0.06582744112982349 0
155 0.9681307527065129 0.2248711499638131 0
$EndNodes
$Elements
308
1 1 2 2 1 1 5
2 1 2 2 1 5 6
3 1 2 2 1 6 7
4 1 2 2 1 7 8
5 1 2 2 1 8 9
6 1 2 2 1 9 10
7 1 2 2 1 10 11
8 1 2 2 1 11 12
9 1 2 2 1 12 13
10 1 2 2 1 13 14
11 1 2 2 1 14 15
12 1 2 2 1 15 16
13 1 2 2 1 16 17
14 1 2 2 1 17 18
15 1 2 2 1 18 19
16 1 2 2 1 19 20
17 1 2 2 1 20 21
18 1 2 2 1 21 22
19 1 2 2 1 22 23
20 1 2 2 1 23 24
21 1 2 2 1 24 2
22 1 2 9 2 3 25
23 1 2 9 2 25 26
24 1 2 9 2 26 27
25 1 2 9 2 27 28
26 1 2 9 2 28 29
27 1 2 9 2 29 30
28 1 2 9 2 30 31
29 1 2 9 2 31 32
30 1 2 9 2 32 33
31 1 2 9 2 33 34
32 1 2 9 2 34 35
33 1 2 9 2 35 36
34 1 2 9 2 36 37
35 1 2 9 2 37 38
36 1 2 9 2 38 39
37 1 2 9 2 39 40
38 1 2 9 2 40 41
39 1 2 9 2 41 42
40 1 2 9 2 42 43
41 1 2 9 2 43 44
42 1 2 9 2 44 4
43 1 2 4 3 4 45
44 1 2 4 3 45 46
45 1 2 4 3 46 47
46 1 2 4 3 47 48
47 1 2 4 3 48 2
48 1 2 3 4 1 49
49 1 2 3 4 49 50
50 1 2 3 4 50 51
51 1 2 3 4 51 52
52 1 2 3 4 52 3
53 2 2 1 1 96 99 106
54 2 2 1 1 5 49 73
55 2 2 1 1 49 5 1
56 2 2 1 1 83 121 129
57 2 2 1 1 69 6 73
58 2 2 1 1 111 70 144
59 2 2 1 1 71 112 139
60 2 2 1 1 135 111 144
61 2 2 1 1 139 112 141
62 2 2 1 1 95 96 106
63 2 2 1 1 13 59 80
64 2 2 1 1 6 5 73
65 2 2 1 1 84 93 121
66 2 2 1 1 93 84 118
67 2 2 1 1 72 104 107
68 2 2 1 1 88 87 91
69 2 2 1 1 92 87 110
70 2 2 1 1 72 107 138
71 2 2 1 1 83 84 121
72 2 2 1 1 78 114 128
73 2 2 1 1 80 59 81
74 2 2 1 1 92 110 135
75 2 2 1 1 69 73 110
76 2 2 1 1 39 65 95
77 2 2 1 1 32 66 101
78 2 2 1 1 14 13 80
79 2 2 1 1 121 101 129
80 2 2 1 1 95 65 96
81 2 2 1 1 86 87 88
82 2 2 1 1 106 99 132
83 2 2 1 1 91 87 92
84 2 2 1 1 121 93 148
85 2 2 1 1 58 136 137
86 2 2 1 1 136 103 137
87 2 2 1 1 58 120 136
88 2 2 1 1 72 23 104
89 2 2 1 1 114 102 128
90 2 2 1 1 94 113 130
91 2 2 1 1 115 97 123
92 2 2 1 1 107 62 138
93 2 2 1 1 94 130 140
94 2 2 1 1 89 93 118
95 2 2 1 1 74 14 80
96 2 2 1 1 38 39 95
97 2 2 1 1 31 32 101
98 2 2 1 1 76 74 80
99 2 2 1 1 60 86 88
100 2 2 1 1 86 69 87
101 2 2 1 1 15 14 74
102 2 2 1 1 23 22 104
103 2 2 1 1 140 56 148
104 2 2 1 1 81 59 82
105 2 2 1 1 120 99 136
106 2 2 1 1 96 65 97
107 2 2 1 1 103 64 137
108 2 2 1 1 117 89 118
109 2 2 1 1 101 66 129
110 2 2 1 1 60 8 86
111 2 2 1 1 7 69 86
112 2 2 1 1 53 115 123
113 2 2 1 1 120 58 134
114 2 2 1 1 85 129 146
115 2 2 1 1 60 89 117
116 2 2 1 1 60 88 89
117 2 2 1 1 94 140 148
118 2 2 1 1 87 69 110
119 2 2 1 1 106 79 128
120 2 2 1 1 79 78 128
121 2 2 1 1 81 82 83
122 2 2 1 1 96 97 98
123 2 2 1 1 108 145 151
124 2 2 1 1 75 76 109
125 2 2 1 1 89 88 90
126 2 2 1 1 37 57 102
127 2 2 1 1 83 82 84
128 2 2 1 1 81 83 85
129 2 2 1 1 96 98 99
130 2 2 1 1 98 97 100
131 2 2 1 1 90 88 91
132 2 2 1 1 89 90 93
133 2 2 1 1 98 100 103
134 2 2 1 1 93 90 94
135 2 2 1 1 63 51 111
136 2 2 1 1 50 51 63
137 2 2 1 1 51 52 111
138 2 2 1 1 46 47 62
139 2 2 1 1 46 62 112
140 2 2 1 1 45 46 112
141 2 2 1 1 77 78 79
142 2 2 1 1 78 75 109
143 2 2 1 1 77 75 78
144 2 2 1 1 107 105 108
145 2 2 1 1 90 91 113
146 2 2 1 1 94 90 113
147 2 2 1 1 75 74 76
148 2 2 1 1 61 75 77
149 2 2 1 1 104 105 107
150 2 2 1 1 97 65 123
151 2 2 1 1 10 9 117
152 2 2 1 1 17 16 119
153 2 2 1 1 61 74 75
154 2 2 1 1 104 64 105
155 2 2 1 1 57 95 106
156 2 2 1 1 20 19 58
157 2 2 1 1 13 12 59
158 2 2 1 1 24 23 72
159 2 2 1 1 25 26 70
160 2 2 1 1 32 33 66
161 2 2 1 1 39 40 65
162 2 2 1 1 43 44 71
163 2 2 1 1 36 37 102
164 2 2 1 1 16 15 61
165 2 2 1 1 9 8 60
166 2 2 1 1 7 6 69
167 2 2 1 1 11 10 68
168 2 2 1 1 18 17 67
169 2 2 1 1 8 7 86
170 2 2 1 1 22 21 64
171 2 2 1 1 37 38 57
172 2 2 1 1 30 31 56
173 2 2 1 1 27 28 55
174 2 2 1 1 41 42 53
175 2 2 1 1 34 35 54
176 2 2 1 1 64 21 137
177 2 2 1 1 77 116 119
178 2 2 1 1 57 106 128
179 2 2 1 1 78 109 114
180 2 2 1 1 61 15 74
181 2 2 1 1 73 49 152
182 2 2 1 1 22 64 104
183 2 2 1 1 57 38 95
184 2 2 1 1 56 31 101
185 2 2 1 1 76 80 149
186 2 2 1 1 85 83 129
187 2 2 1 1 110 73 152
188 2 2 1 1 55 113 127
189 2 2 1 1 67 116 120
190 2 2 1 1 116 67 119
191 2 2 1 1 62 107 141
192 2 2 1 1 68 10 117
193 2 2 1 1 67 17 119
194 2 2 1 1 79 106 132
195 2 2 1 1 139 108 151
196 2 2 1 1 68 117 118
197 2 2 1 1 100 97 115
198 2 2 1 1 52 3 142
199 2 2 1 1 4 45 143
200 2 2 1 1 77 79 116
201 2 2 1 1 110 63 135
202 2 2 1 1 3 25 142
203 2 2 1 1 44 4 143
204 2 2 1 1 82 59 133
205 2 2 1 1 61 77 119
206 2 2 1 1 30 56 140
207 2 2 1 1 113 91 127
208 2 2 1 1 98 103 136
209 2 2 1 1 47 48 138
210 2 2 1 1 64 103 153
211 2 2 1 1 70 111 142
212 2 2 1 1 85 146 147
213 2 2 1 1 112 71 143
214 2 2 1 1 42 43 122
215 2 2 1 1 40 41 123
216 2 2 1 1 33 34 124
217 2 2 1 1 26 27 126
218 2 2 1 1 9 60 117
219 2 2 1 1 16 61 119
220 2 2 1 1 125 109 147
221 2 2 1 1 80 81 149
222 2 2 1 1 91 92 127
223 2 2 1 1 49 50 152
224 2 2 1 1 63 110 152
225 2 2 1 1 99 120 132
226 2 2 1 1 102 57 128
227 2 2 1 1 20 58 137
228 2 2 1 1 124 54 125
229 2 2 1 1 53 42 122
230 2 2 1 1 41 53 123
231 2 2 1 1 34 54 124
232 2 2 1 1 27 55 126
233 2 2 1 1 107 108 141
234 2 2 1 1 126 55 127
235 2 2 1 1 118 84 150
236 2 2 1 1 109 76 147
237 2 2 1 1 120 116 132
238 2 2 1 1 146 125 147
239 2 2 1 1 36 102 131
240 2 2 1 1 113 55 130
241 2 2 1 1 12 11 133
242 2 2 1 1 102 114 131
243 2 2 1 1 56 101 121
244 2 2 1 1 129 66 146
245 2 2 1 1 84 82 150
246 2 2 1 1 116 79 132
247 2 2 1 1 43 71 122
248 2 2 1 1 65 40 123
249 2 2 1 1 66 33 124
250 2 2 1 1 70 26 126
251 2 2 1 1 28 29 130
252 2 2 1 1 35 36 131
253 2 2 1 1 11 68 133
254 2 2 1 1 138 48 155
255 2 2 1 1 48 2 155
256 2 2 1 1 109 125 154
257 2 2 1 1 63 111 135
258 2 2 1 1 58 19 134
259 2 2 1 1 99 98 136
260 2 2 1 1 19 18 134
261 2 2 1 1 2 24 155
262 2 2 1 1 126 127 144
263 2 2 1 1 108 105 145
264 2 2 1 1 59 12 133
265 2 2 1 1 62 47 138
266 2 2 1 1 55 28 130
267 2 2 1 1 54 35 131
268 2 2 1 1 82 133 150
269 2 2 1 1 21 20 137
270 2 2 1 1 67 120 134
271 2 2 1 1 18 67 134
272 2 2 1 1 112 62 141
273 2 2 1 1 145 105 153
274 2 2 1 1 92 135 144
275 2 2 1 1 108 139 141
276 2 2 1 1 29 30 140
277 2 2 1 1 105 64 153
278 2 2 1 1 111 52 142
279 2 2 1 1 45 112 143
280 2 2 1 1 145 115 151
281 2 2 1 1 25 70 142
282 2 2 1 1 71 44 143
283 2 2 1 1 130 29 140
284 2 2 1 1 114 109 154
285 2 2 1 1 93 94 148
286 2 2 1 1 81 85 149
287 2 2 1 1 100 145 153
288 2 2 1 1 50 63 152
289 2 2 1 1 103 100 153
290 2 2 1 1 68 118 150
291 2 2 1 1 131 114 154
292 2 2 1 1 127 92 144
293 2 2 1 1 72 138 155
294 2 2 1 1 124 125 146
295 2 2 1 1 100 115 145
296 2 2 1 1 54 131 154
297 2 2 1 1 122 71 139
298 2 2 1 1 125 54 154
299 2 2 1 1 133 68 150
300 2 2 1 1 24 72 155
301 2 2 1 1 115 53 151
302 2 2 1 1 70 126 144
303 2 2 1 1 56 121 148
304 2 2 1 1 66 124 146
305 2 2 1 1 53 122 151
306 2 2 1 1 122 139 151
307 2 2 1 1 85 147 149
308 2 2 1 1 147 76 149
$EndElements
