$MeshFormat
4.1 0 8
$EndMeshFormat
$PhysicalNames
5
1 2 "l"
1 3 "r"
1 4 "t"
1 5 "b"
2 1 "Volume"
$EndPhysicalNames
$Entities
4 4 1 0
1 0 0 0 0 
2 0.0625 0 0 0 
3 0.0625 0.0625 0 0 
4 0 0.0625 0 0 
1 0 0 0 0 0.0625 0 1 2 2 4 -1 
2 0 0 0 0.0625 0 0 1 5 2 1 -2 
3 0.0625 0 0 0.0625 0.0625 0 1 3 2 2 -3 
4 0 0.0625 0 0.0625 0.0625 0 1 4 2 3 -4 
1 0 0 0 0.0625 0.0625 0 1 1 4 1 2 3 4 
$EndEntities
$Nodes
9 5 1 5
0 1 0 1
1
0 0 0
0 2 0 1
2
0.0625 0 0
0 3 0 1
3
0.0625 0.0625 0
0 4 0 1
4
0 0.0625 0
1 1 0 0
1 2 0 0
1 3 0 0
1 4 0 0
2 1 0 1
5
0.03125 0.03125 0
$EndNodes
$Elements
5 8 1 8
1 1 1 1
1 4 1 
1 2 1 1
2 1 2 
1 3 1 1
3 2 3 
1 4 1 1
4 3 4 
2 1 2 4
5 1 2 5 
6 4 1 5 
7 2 3 5 
8 3 4 5 
$EndElements
