$MeshFormat
4.1 0 8
$EndMeshFormat
$PhysicalNames
5
1 2 "sub_mesh_1"
1 3 "line_41"
1 4 "line_23"
1 6 "line_12"
2 1 "sub_mesh_0"
$EndPhysicalNames
$Entities
4 4 1 0
1 0 0 0 0 
2 1 0 0 0 
3 1 0.2 0 0 
4 0 0.2 0 0 
1 0 0 0 1 0 0 1 6 2 1 -2 
2 1 0 0 1 0.2 0 1 4 2 2 -3 
3 0 0.2 0 1 0.2 0 1 2 2 3 -4 
4 0 0 0 0 0.2 0 1 3 2 4 -1 
1 0 0 0 1 0.2 0 1 1 4 1 2 3 4 
$EndEntities
$Nodes
9 129 1 129
0 1 0 1
1
0 0 0
0 2 0 1
2
1 0 0
0 3 0 1
3
1 0.2 0
0 4 0 1
4
0 0.2 0
1 1 0 19
5
6
7
8
9
10
11
12
13
14
15
16
17
18
19
20
21
22
23
0.04999999999989965 0 0
0.09999999999981467 0 0
0.1499999999997036 0 0
0.1999999999995579 0 0
0.2499999999994121 0 0
0.2999999999992664 0 0
0.3499999999991206 0 0
0.3999999999989749 0 0
0.4499999999988292 0 0
0.4999999999986943 0 0
0.5499999999988151 0 0
0.5999999999989468 0 0
0.6499999999990784 0 0
0.69999999999921 0 0
0.7499999999993417 0 0
0.7999999999994734 0 0
0.8499999999996051 0 0
0.8999999999997368 0 0
0.9499999999998684 0 0
1 2 0 3
24
25
26
1 0.04999999999988326 0
1 0.09999999999973684 0
1 0.1499999999998671 0
1 3 0 19
27
28
29
30
31
32
33
34
35
36
37
38
39
40
41
42
43
44
45
0.9499999999997918 0.2 0
0.8999999999995836 0.2 0
0.8499999999996529 0.2 0
0.7999999999999998 0.2 0
0.7500000000003466 0.2 0
0.7000000000006934 0.2 0
0.6500000000010401 0.2 0
0.6000000000013869 0.2 0
0.5500000000017335 0.2 0
0.5000000000020587 0.2 0
0.4500000000018723 0.2 0
0.4000000000016644 0.2 0
0.3500000000014564 0.2 0
0.3000000000012483 0.2 0
0.2500000000010403 0.2 0
0.2000000000008322 0.2 0
0.1500000000006241 0.2 0
0.100000000000416 0.2 0
0.05000000000020799 0.2 0
1 4 0 3
46
47
48
0 0.1500000000001382 0
0 0.1000000000002739 0
0 0.05000000000013832 0
2 1 0 81
49
50
51
52
53
54
55
56
57
58
59
60
61
62
63
64
65
66
67
68
69
70
71
72
73
74
75
76
77
78
79
80
81
82
83
84
85
86
87
88
89
90
91
92
93
94
95
96
97
98
99
100
101
102
103
104
105
106
107
108
109
110
111
112
113
114
115
116
117
118
119
120
121
122
123
124
125
126
127
128
129
0.8249999999998263 0.1566987298110785 0
0.72500000000052 0.1566987298110784 0
0.6250000000012135 0.1566987298110784 0
0.5250000000016446 0.1566987298106794 0
0.1249999999997592 0.04330127018911073 0
0.224999999999485 0.0433012701890957 0
0.3249999999991935 0.04330127018909568 0
0.4249999999989021 0.04330127018909575 0
0.8745913491189805 0.0430653354933634 0
0.7749999999994801 0.0433012701893254 0
0.6749999999993144 0.04330127018947809 0
0.1750000000006703 0.1566987298106575 0
0.2750000000011369 0.156698729810666 0
0.574999999998881 0.04330127018933124 0
0.3750000000015057 0.1566987298106386 0
0.9202434745304183 0.1577380721241455 0
0.07521186846435249 0.1576613977470762 0
0.9520360594900217 0.07950655893770357 0
0.03953531183915318 0.07183803468346942 0
0.3250000000013087 0.1566987298106691 0
0.3500000000013362 0.115516015467272 0
0.4000000000014418 0.1158691081081959 0
0.3750000000013847 0.07009618943213296 0
0.4250000000015853 0.1571106712250669 0
0.4500000000014639 0.1159966137840302 0
0.4750000000016755 0.1572005790734811 0
0.500000000001585 0.1139142935256489 0
0.5489153824809797 0.1141360054032754 0
0.4694843539717968 0.07158085066263307 0
0.5215022358175537 0.07399489839273013 0
0.2250000000008806 0.1566987298106637 0
0.2500000000009142 0.1155160154672673 0
0.3000000000011617 0.1162222007492627 0
0.2750000000009688 0.070096189432133 0
0.1250353114111895 0.1568591744667471 0
0.1500058852356588 0.1155427562432732 0
0.2000009808732409 0.1162266575452565 0
0.1750000000004352 0.07009618943210751 0
0.09973508174743045 0.1192351431121507 0
0.8249318915194294 0.04326194773996639 0
0.7999886485861749 0.08447743079112993 0
0.7499981080973068 0.08412979960150735 0
0.7749999999995905 0.1299038105677386 0
0.7249996846823674 0.04288914672650976 0
0.6999996321296124 0.08400317382615032 0
0.6499999386878116 0.08405075677422714 0
0.6749999999995899 0.1299038105679482 0
0.6249999897805878 0.04287597292204115 0
0.6041666547446616 0.08123674589650282 0
0.8499186482038423 0.08408392341057236 0
0.8990477792724865 0.08289206091676855 0
0.8734860608732015 0.1267032002455459 0
0.5725509767140257 0.1581313976591719 0
0.9587251789583398 0.1254614108269896 0
0.07206826926272761 0.03862229270718521 0
0.9231787745837871 0.04034441595435675 0
0.04473966578134973 0.1214028529628473 0
0.8246786715325272 0.1163734189652131 0
0.7750000000001728 0.1694100648860775 0
0.724999548045324 0.1169278648748846 0
0.8746735493230561 0.1691023638110709 0
0.5000000000017236 0.03950625431840924 0
0.6750000000008666 0.1694100648861962 0
0.2250001961750088 0.08304726441317201 0
0.325000000000809 0.08304637305397927 0
0.627222438747129 0.1153614164236136 0
0.1258589614776637 0.08482604556909033 0
0.2749999999993393 0.03058993511381385 0
0.3749999999990478 0.03058993511381407 0
0.1749999999996308 0.03058993511379957 0
0.4238968707949979 0.08336880643521759 0
0.03660254037865493 0.1633974596214379 0
0.963397459621403 0.1633974596214229 0
0.03660254037850919 0.03660254037857315 0
0.9633974596216287 0.036602540378305 0
0.08210937919432917 0.07996042121652178 0
0.9204553743710909 0.1166382921860619 0
0.4688968707939892 0.03087767503402761 0
0.5883566434526903 0.1192804182670987 0
0.5630015823794075 0.07814063533328036 0
0.5372639612809311 0.03679707691722277 0
$EndNodes
$Elements
5 256 1 256
1 1 1 20
1 1 5 
2 5 6 
3 6 7 
4 7 8 
5 8 9 
6 9 10 
7 10 11 
8 11 12 
9 12 13 
10 13 14 
11 14 15 
12 15 16 
13 16 17 
14 17 18 
15 18 19 
16 19 20 
17 20 21 
18 21 22 
19 22 23 
20 23 2 
1 2 1 4
21 2 24 
22 24 25 
23 25 26 
24 26 3 
1 3 1 20
25 3 27 
26 27 28 
27 28 29 
28 29 30 
29 30 31 
30 31 32 
31 32 33 
32 33 34 
33 34 35 
34 35 36 
35 36 37 
36 37 38 
37 38 39 
38 39 40 
39 40 41 
40 41 42 
41 42 43 
42 43 44 
43 44 45 
44 45 4 
1 4 1 4
45 4 46 
46 46 47 
47 47 48 
48 48 1 
2 1 2 208
49 87 105 124 
50 87 65 105 
51 99 66 125 
52 66 99 104 
53 56 77 119 
54 55 71 113 
55 71 55 117 
56 54 82 112 
57 82 54 116 
58 50 95 108 
59 95 50 111 
60 49 91 106 
61 86 53 118 
62 53 86 115 
63 91 49 107 
64 100 64 109 
65 100 49 106 
66 49 100 109 
67 91 50 108 
68 50 91 107 
69 86 54 112 
70 54 86 118 
71 95 51 114 
72 51 95 111 
73 82 55 113 
74 55 82 116 
75 71 56 119 
76 56 71 117 
77 105 67 124 
78 52 74 75 
79 52 75 76 
80 52 36 74 
81 36 37 74 
82 62 96 97 
83 16 17 96 
84 80 79 85 
85 62 16 96 
86 69 68 81 
87 52 76 101 
88 79 60 85 
89 59 92 93 
90 59 93 94 
91 59 18 92 
92 75 77 78 
93 68 61 81 
94 42 60 79 
95 40 61 68 
96 60 43 83 
97 17 59 96 
98 37 38 72 
99 60 83 84 
100 37 72 74 
101 18 19 92 
102 27 28 64 
103 94 93 95 
104 58 20 88 
105 58 88 89 
106 47 48 67 
107 83 65 87 
108 63 39 68 
109 44 65 83 
110 61 41 79 
111 76 75 78 
112 98 57 99 
113 38 63 72 
114 42 43 60 
115 38 39 63 
116 40 41 61 
117 44 45 65 
118 90 89 91 
119 63 68 69 
120 61 79 80 
121 98 99 100 
122 88 57 98 
123 21 57 88 
124 19 58 92 
125 89 88 98 
126 58 89 90 
127 15 16 62 
128 17 18 59 
129 21 22 57 
130 19 20 58 
131 39 40 68 
132 41 42 79 
133 43 44 83 
134 74 73 75 
135 60 84 85 
136 84 83 87 
137 59 94 96 
138 96 94 97 
139 20 21 88 
140 75 73 77 
141 92 90 93 
142 61 80 81 
143 63 69 70 
144 85 84 86 
145 70 69 71 
146 81 80 82 
147 63 70 72 
148 72 70 73 
149 72 73 74 
150 58 90 92 
151 6 7 53 
152 24 25 66 
153 10 11 55 
154 8 9 54 
155 12 13 56 
156 35 36 52 
157 29 30 49 
158 31 32 50 
159 33 34 51 
160 34 35 101 
161 35 52 101 
162 51 34 101 
163 103 53 124 
164 66 102 125 
165 77 56 126 
166 53 115 124 
167 64 100 125 
168 25 26 102 
169 99 57 104 
170 46 47 105 
171 5 6 103 
172 22 23 104 
173 66 25 102 
174 47 67 105 
175 57 22 104 
176 6 53 103 
177 85 86 112 
178 64 28 109 
179 81 82 113 
180 95 93 108 
181 90 91 108 
182 98 100 106 
183 91 89 106 
184 82 80 112 
185 71 69 113 
186 94 95 114 
187 77 73 119 
188 29 49 109 
189 70 71 119 
190 53 7 118 
191 12 56 117 
192 55 11 117 
193 54 9 116 
194 10 55 116 
195 49 30 107 
196 31 50 107 
197 8 54 118 
198 86 84 115 
199 50 32 111 
200 33 51 111 
201 45 4 120 
202 4 46 120 
203 48 1 122 
204 1 5 122 
205 3 27 121 
206 26 3 121 
207 2 24 123 
208 23 2 123 
209 14 15 129 
210 51 101 127 
211 13 14 126 
212 14 110 126 
213 110 14 129 
214 114 51 127 
215 100 99 125 
216 104 23 123 
217 46 105 120 
218 102 26 121 
219 5 103 122 
220 78 77 110 
221 80 85 112 
222 69 81 113 
223 28 29 109 
224 89 98 106 
225 93 90 108 
226 30 31 107 
227 97 94 114 
228 32 33 111 
229 84 87 115 
230 11 12 117 
231 9 10 116 
232 7 8 118 
233 73 70 119 
234 65 45 120 
235 27 64 121 
236 67 48 122 
237 24 66 123 
238 128 78 129 
239 76 78 128 
240 62 97 128 
241 62 128 129 
242 101 76 127 
243 56 13 126 
244 15 62 129 
245 66 104 123 
246 64 102 121 
247 103 67 122 
248 105 65 120 
249 127 76 128 
250 97 127 128 
251 67 103 124 
252 102 64 125 
253 115 87 124 
254 110 77 126 
255 97 114 127 
256 78 110 129 
$EndElements
