$MeshFormat
4.1 0 8
$EndMeshFormat
$PhysicalNames
9
1 3 "l_line"
1 4 "lb_line"
1 5 "rb_line"
1 6 "r_line"
1 7 "tr_line"
1 8 "tl_line"
1 9 "m_line"
2 1 "left_square"
2 2 "right_square"
$EndPhysicalNames
$Entities
6 7 2 0
1 0 0 0 0 
2 0.3 0 0 0 
3 0.3 2 0 0 
4 0 2 0 0 
5 1 0 0 0 
6 1 2 0 0 
1 0 0 0 0.3 0 0 1 4 2 1 -2 
2 0.3 0 0 0.3 2 0 1 9 2 2 -3 
3 0 2 0 0.3 2 0 1 8 2 3 -4 
4 0 0 0 0 2 0 1 3 2 4 -1 
5 0.3 2 0 1 2 0 1 7 2 3 -6 
6 1 0 0 1 2 0 1 6 2 6 -5 
7 0.3 0 0 1 0 0 1 5 2 5 -2 
1 0 0 0 0.3 2 0 1 1 4 1 2 3 4 
2 0.3 0 0 1 2 0 1 2 4 5 6 7 2 
$EndEntities
$Nodes
15 275 1 275
0 1 0 1
1
0 0 0
0 2 0 1
2
0.3 0 0
0 3 0 1
3
0.3 2 0
0 4 0 1
4
0 2 0
0 5 0 1
5
1 0 0
0 6 0 1
6
1 2 0
1 1 0 2
7
8
0.09999999999975391 0 0
0.199999999999748 0 0
1 2 0 19
9
10
11
12
13
14
15
16
17
18
19
20
21
22
23
24
25
26
27
0.3 0.0999999999997993 0
0.3 0.1999999999996293 0
0.3 0.2999999999994072 0
0.3 0.3999999999991157 0
0.3 0.4999999999988242 0
0.3 0.5999999999985328 0
0.3 0.6999999999982413 0
0.3 0.7999999999979498 0
0.3 0.8999999999976585 0
0.3 0.9999999999973885 0
0.3 1.09999999999763 0
0.3 1.199999999997894 0
0.3 1.299999999998157 0
0.3 1.39999999999842 0
0.3 1.499999999998683 0
0.3 1.599999999998947 0
0.3 1.69999999999921 0
0.3 1.799999999999474 0
0.3 1.899999999999737 0
1 3 0 2
28
29
0.2000000000002564 2 0
0.1000000000002544 2 0
1 4 0 19
30
31
32
33
34
35
36
37
38
39
40
41
42
43
44
45
46
47
48
0 1.899999999999584 0
0 1.799999999999167 0
0 1.699999999999306 0
0 1.6 0
0 1.500000000000693 0
0 1.400000000001387 0
0 1.30000000000208 0
0 1.200000000002774 0
0 1.100000000003467 0
0 1.000000000004117 0
0 0.9000000000037447 0
0 0.8000000000033287 0
0 0.7000000000029127 0
0 0.6000000000024965 0
0 0.5000000000020806 0
0 0.4000000000016644 0
0 0.3000000000012482 0
0 0.200000000000832 0
0 0.100000000000416 0
1 5 0 6
49
50
51
52
53
54
0.3999999999998062 2 0
0.4999999999994559 2 0
0.5999999999991444 2 0
0.6999999999991224 2 0
0.7999999999992684 2 0
0.8999999999996127 2 0
1 6 0 19
55
56
57
58
59
60
61
62
63
64
65
66
67
68
69
70
71
72
73
1 1.899999999999584 0
1 1.799999999999167 0
1 1.699999999999306 0
1 1.6 0
1 1.500000000000693 0
1 1.400000000001387 0
1 1.30000000000208 0
1 1.200000000002774 0
1 1.100000000003467 0
1 1.000000000004117 0
1 0.9000000000037447 0
1 0.8000000000033287 0
1 0.7000000000029127 0
1 0.6000000000024965 0
1 0.5000000000020806 0
1 0.4000000000016644 0
1 0.3000000000012482 0
1 0.200000000000832 0
1 0.100000000000416 0
1 7 0 6
74
75
76
77
78
79
0.9000000000002697 0 0
0.8000000000004961 0 0
0.7000000000007875 0 0
0.600000000000726 0 0
0.5000000000004283 0 0
0.4000000000002358 0 0
2 1 0 59
80
81
82
83
84
85
86
87
88
89
90
91
92
93
94
95
96
97
98
99
100
101
102
103
104
105
106
107
108
109
110
111
112
113
114
115
116
117
118
119
120
121
122
123
124
125
126
127
128
129
130
131
132
133
134
135
136
137
138
0.08660254037784301 1.649999999999653 0
0.08660254037784321 1.45000000000104 0
0.08660254037784321 1.250000000002427 0
0.2133974596217785 0.2499999999995182 0
0.07654974447224372 1.84953999120884 0
0.2133974596218086 0.44999999999897 0
0.08660254037786205 1.050000000003792 0
0.2133974596218086 0.6499999999983869 0
0.2133974596218085 0.8499999999978041 0
0.1500000000000384 0.09382000924161801 0
0.2133974596213281 1.749999999999343 0
0.2133974596213282 1.549999999998814 0
0.0866025403788043 0.3500000000014563 0
0.2133974596213282 1.349999999998289 0
0.0866025403788041 0.5500000000022887 0
0.2133974596213375 1.149999999997762 0
0.0866025403788041 0.7500000000031208 0
0.08660254037871409 0.4500000000020287 0
0.08660254037871418 0.6500000000028608 0
0.2133974596215684 1.049999999997509 0
0.2133974596213883 1.449999999998448 0
0.2133974596213878 1.249999999997921 0
0.2133974596213843 1.649999999999178 0
0.08660254037878536 0.8500000000035365 0
0.08660254037871412 0.2500000000011961 0
0.08660254037793205 0.9500000000043535 0
0.2234502555276474 1.849539991208961 0
0.2133974596215924 0.9499999999976917 0
0.08415291186303567 1.749980042655502 0
0.2133974596218084 0.7499999999980954 0
0.2133974596218086 0.3499999999992615 0
0.2133974596218089 0.5499999999986787 0
0.08660254037784311 1.550000000000346 0
0.08660254037784321 1.350000000001733 0
0.08660254037784289 1.150000000003121 0
0.07663460352268622 0.1529245620071157 0
0.2233653964775774 0.1529245620065451 0
0.1500000000001456 1.913677638545807 0
0.1499999999997073 1.699999999999343 0
0.1499999999995145 1.599999999999671 0
0.1499999999996242 1.799999999998952 0
0.1499999999994184 1.499999999999951 0
0.150000000000908 0.299999999999409 0
0.1499999999993413 1.400000000000257 0
0.1500000000005852 0.3999999999999917 0
0.1499999999992638 1.300000000000567 0
0.1500000000000363 0.5000000000007649 0
0.1499999999991919 1.200000000000878 0
0.1499999999999512 0.6000000000008971 0
0.1499999999998538 0.7000000000011168 0
0.1499999999991733 1.100000000001196 0
0.1499999999980364 0.8000000000033403 0
0.1499999999992106 1.000000000001505 0
0.1499999999988679 0.9000000000022614 0
0.1500000000004004 0.2001098345423428 0
0.2267949192429555 0.07320508075692324 0
0.07320508075667283 0.07320508075685023 0
0.07269592645557939 1.927304073544376 0
0.2273040735446769 1.927304073544535 0
2 2 0 137
139
140
141
142
143
144
145
146
147
148
149
150
151
152
153
154
155
156
157
158
159
160
161
162
163
164
165
166
167
168
169
170
171
172
173
174
175
176
177
178
179
180
181
182
183
184
185
186
187
188
189
190
191
192
193
194
195
196
197
198
199
200
201
202
203
204
205
206
207
208
209
210
211
212
213
214
215
216
217
218
219
220
221
222
223
224
225
226
227
228
229
230
231
232
233
234
235
236
237
238
239
240
241
242
243
244
245
246
247
248
249
250
251
252
253
254
255
256
257
258
259
260
261
262
263
264
265
266
267
268
269
270
271
272
273
274
275
0.9133974596207273 1.649999999999721 0
0.9133974596219483 1.350000000001461 0
0.9133974596219285 1.050000000003793 0
0.3889978680983552 0.4499999999995009 0
0.3897372185823234 0.7511065532348429 0
0.3864397097234933 1.251525291769382 0
0.3885004516879001 1.549005738095362 0
0.9133974596213159 0.5500000000021196 0
0.6510989301493606 0.08886523929128579 0
0.6515385022054282 1.909340591556969 0
0.9133974596213648 0.8500000000031183 0
0.3866025403784316 1.049999999997509 0
0.9133974596213755 0.3500000000015727 0
0.3896747049812204 0.2508173017613742 0
0.387373088306227 1.749182698237961 0
0.9156303695567659 1.846132486540165 0
0.9156303695582638 0.1538675134609266 0
0.4606478021030768 1.909364840267775 0
0.4649069229462205 0.09135911788684473 0
0.9133974596213958 0.4500000000018375 0
0.8267949192428025 0.5000000000018311 0
0.8267949192426298 0.6000000000019768 0
0.7401923788642191 0.5500000000016881 0
0.7401923788639329 0.6500000000016987 0
0.7401923788644071 0.4500000000016772 0
0.6535898384856178 0.6000000000014524 0
0.6535898384853286 0.7000000000014326 0
0.5663493648475126 0.6510342346434406 0
0.5665346381402682 0.7517116653101584 0
0.6535143951576774 0.8002852775528624 0
0.5669872981064955 0.8500000000011293 0
0.6535772645971953 0.9000475462598556 0
0.5668809758973987 0.5501723724416028 0
0.5657885896297714 0.9500079243768271 0
0.6533879580909235 1.000009245107424 0
0.5655572537990741 1.050002861580531 0
0.6533178510354399 1.100002017782756 0
0.5660481321565947 1.150995075130809 0
0.6533879795849926 1.200166182152957 0
0.5669872981053051 1.250000000000229 0
0.6535561953342005 1.300027697025735 0
0.564981526671378 1.350535646038247 0
0.6532499360537449 1.40009389051061 0
0.5654455441242068 1.450104922757954 0
0.6532762290816667 1.500033135544659 0
0.565527262537451 1.550023009716799 0
0.653294230987773 1.600009357543479 0
0.565543882590498 1.650005394542955 0
0.6533000013140717 1.700002458680847 0
0.7401531285233607 1.250032313197393 0
0.7400908427134603 1.550007082181157 0
0.7401566364843628 0.9500094652302784 0
0.5655476143201943 1.750001308870067 0
0.4795712178181402 0.601245217485157 0
0.4797737572617155 0.9001318145973802 0
0.4757196399424356 1.399745378163511 0
0.8267949192422256 0.7000000000019611 0
0.652959695610513 1.801557393184412 0
0.7400390488536358 1.750259975310851 0
0.7413545141902065 1.849028443657149 0
0.5601797286606343 1.850439262148002 0
0.4793882513416428 0.5002362649882329 0
0.5668034933413418 0.4500681062392234 0
0.4793448431699281 0.4000507285381406 0
0.5667833448868582 0.3500198057972287 0
0.4794470565461216 0.3001479726831634 0
0.5669872981080329 0.2500000000015509 0
0.6535558462827581 0.3000033009676489 0
0.6531690217296734 0.1974757627690984 0
0.7401165773712354 0.2495798439574595 0
0.7401923788649263 0.1500000000020384 0
0.4752957674528178 0.1988690398750548 0
0.4786044554241313 1.100592135044739 0
0.4769115918034661 1.599885016946577 0
0.4718332441872642 1.800680716492462 0
0.5621699352198279 0.1478993505471675 0
0.3902841661871118 0.5502567954066644 0
0.3895774121326042 0.3501693338301169 0
0.3906123981468717 0.651066222607763 0
0.4791565280468469 0.7015323737734129 0
0.8273352051164423 1.799236817584628 0
0.8373021440143636 1.90774362413079 0
0.8268594118859608 1.699916132149013 0
0.9137696112775339 0.2506445855781213 0
0.3871870852956652 0.9500057187345047 0
0.4752699784818487 1.000062963802383 0
0.3895852662226089 1.150962261693118 0
0.4760081056511154 1.201210157140342 0
0.3921582680425866 0.850259623171679 0
0.3868910398420354 1.649916417346208 0
0.4744239825786828 1.499687564827491 0
0.3864898960148083 1.449739780180292 0
0.4756834101749475 1.699945258739372 0
0.9133974596215571 0.9500000000037734 0
0.8267889621801441 1.000001577541719 0
0.8267939264005011 1.100000262926398 0
0.7401062855097988 1.05000376143189 0
0.8267879693359618 0.9000018404635607 0
0.7401705939469064 0.8500573549181882 0
0.9133974596212884 0.7500000000032808 0
0.9138704076966493 1.749214239378667 0
0.8267933121212273 1.599996668676218 0
0.9133971917679508 1.549999444779548 0
0.8267776840553762 1.500000532606223 0
0.7400636650020359 1.450022440140475 0
0.826770594401639 1.400003828791606 0
0.9133974596212918 0.6500000000025387 0
0.7400628079793546 1.650031945756928 0
0.6535414839898348 0.5000400797811977 0
0.8267949192428778 0.4000000000017814 0
0.6535114877049484 0.4000218821314663 0
0.9133974596221222 1.250000000002025 0
0.7401761741564548 0.7500571054128511 0
0.7401610214515038 0.3499341711769968 0
0.7400980730930184 1.350030028277716 0
0.8267686057512421 1.30001102837874 0
0.9133972941483193 1.150000043823449 0
0.8268390847012157 0.300026433453022 0
0.9133904883078189 1.450000634363486 0
0.827223823502638 0.2006863960758623 0
0.8267929695545189 0.8000050456762541 0
0.8267837988854945 1.200007274721794 0
0.8371202130241895 0.09210661262933265 0
0.7400904949899312 1.150035302035531 0
0.4708211476588038 1.302208251475844 0
0.4799369169012564 0.8014303414941049 0
0.3829576566114439 1.846409628007496 0
0.3837713240270313 0.1549038105672718 0
0.3865783988899235 1.350536450264268 0
0.5544732065935478 1.933828938794549 0
0.7499999999998579 0.06698729810919253 0
0.7489689275480665 1.933067322355729 0
0.5514668777761745 0.06547248041758687 0
0.9267949192428753 0.0732050807573086 0
0.9267949192428339 1.926794919242826 0
0.3732050807571187 0.07320508075700176 0
0.3732050807566109 1.926794919243267 0
$EndNodes
$Elements
9 568 1 568
1 1 1 3
1 1 7 
2 7 8 
3 8 2 
1 2 1 20
4 2 9 
5 9 10 
6 10 11 
7 11 12 
8 12 13 
9 13 14 
10 14 15 
11 15 16 
12 16 17 
13 17 18 
14 18 19 
15 19 20 
16 20 21 
17 21 22 
18 22 23 
19 23 24 
20 24 25 
21 25 26 
22 26 27 
23 27 3 
1 3 1 3
24 3 28 
25 28 29 
26 29 4 
1 4 1 20
27 4 30 
28 30 31 
29 31 32 
30 32 33 
31 33 34 
32 34 35 
33 35 36 
34 36 37 
35 37 38 
36 38 39 
37 39 40 
38 40 41 
39 41 42 
40 42 43 
41 43 44 
42 44 45 
43 45 46 
44 46 47 
45 47 48 
46 48 1 
1 5 1 7
47 3 49 
48 49 50 
49 50 51 
50 51 52 
51 52 53 
52 53 54 
53 54 6 
1 6 1 20
54 6 55 
55 55 56 
56 56 57 
57 57 58 
58 58 59 
59 59 60 
60 60 61 
61 61 62 
62 62 63 
63 63 64 
64 64 65 
65 65 66 
66 66 67 
67 67 68 
68 68 69 
69 69 70 
70 70 71 
71 71 72 
72 72 73 
73 73 5 
1 7 1 7
74 5 74 
75 74 75 
76 75 76 
77 76 77 
78 77 78 
79 78 79 
80 79 2 
2 1 2 162
81 106 117 120 
82 117 84 120 
83 89 116 134 
84 115 89 134 
85 45 92 97 
86 43 94 98 
87 41 96 103 
88 40 103 105 
89 23 91 100 
90 21 93 101 
91 91 24 102 
92 18 19 99 
93 19 95 99 
94 30 31 84 
95 92 46 104 
96 96 42 98 
97 94 44 97 
98 40 41 103 
99 45 46 92 
100 41 42 96 
101 43 44 94 
102 18 99 107 
103 93 22 100 
104 25 90 102 
105 95 20 101 
106 90 26 106 
107 21 22 93 
108 19 20 95 
109 23 24 91 
110 25 26 90 
111 17 18 107 
112 42 43 98 
113 46 47 104 
114 44 45 97 
115 7 8 89 
116 22 23 100 
117 20 21 101 
118 24 25 102 
119 26 27 106 
120 88 17 107 
121 84 31 108 
122 39 40 105 
123 31 32 108 
124 10 11 83 
125 15 16 109 
126 12 13 85 
127 13 14 111 
128 16 17 88 
129 14 15 87 
130 11 12 110 
131 38 39 86 
132 35 36 113 
133 33 34 112 
134 34 35 81 
135 36 37 82 
136 32 33 80 
137 37 38 114 
138 32 80 108 
139 83 11 110 
140 87 15 109 
141 16 88 109 
142 85 13 111 
143 14 87 111 
144 12 85 110 
145 38 86 114 
146 81 35 113 
147 80 33 112 
148 36 82 113 
149 34 81 112 
150 82 37 114 
151 86 39 105 
152 47 48 115 
153 9 10 116 
154 104 47 115 
155 10 83 116 
156 28 29 117 
157 8 2 135 
158 2 9 135 
159 48 1 136 
160 1 7 136 
161 29 4 137 
162 4 30 137 
163 27 3 138 
164 3 28 138 
165 129 109 131 
166 96 129 131 
167 126 111 128 
168 94 126 128 
169 122 110 124 
170 131 88 133 
171 92 122 124 
172 99 95 130 
173 88 107 133 
174 107 99 132 
175 101 93 125 
176 95 101 127 
177 107 132 133 
178 96 98 129 
179 99 130 132 
180 100 91 121 
181 93 100 123 
182 109 88 131 
183 94 97 126 
184 111 87 128 
185 91 102 119 
186 92 104 122 
187 95 127 130 
188 101 125 127 
189 110 85 124 
190 90 106 120 
191 102 90 118 
192 93 123 125 
193 84 108 120 
194 100 121 123 
195 97 92 124 
196 108 80 118 
197 103 131 133 
198 80 112 119 
199 91 119 121 
200 118 80 119 
201 98 94 128 
202 108 118 120 
203 118 90 120 
204 112 81 121 
205 119 112 121 
206 102 118 119 
207 105 103 133 
208 83 110 122 
209 121 81 123 
210 81 113 123 
211 103 96 131 
212 123 113 125 
213 113 82 125 
214 85 111 126 
215 125 82 127 
216 82 114 127 
217 87 109 129 
218 114 86 130 
219 127 114 130 
220 130 86 132 
221 86 105 132 
222 132 105 133 
223 97 124 126 
224 124 85 126 
225 128 87 129 
226 98 128 129 
227 115 48 136 
228 9 116 135 
229 122 104 134 
230 83 122 134 
231 106 27 138 
232 30 84 137 
233 89 8 135 
234 7 89 136 
235 104 115 134 
236 116 83 134 
237 89 115 136 
238 116 89 135 
239 84 117 137 
240 117 106 138 
241 117 29 137 
242 28 117 138 
2 2 2 326
243 156 199 213 
244 157 210 214 
245 199 156 268 
246 157 214 271 
247 74 75 261 
248 53 54 220 
249 147 207 209 
250 196 148 198 
251 74 261 272 
252 220 54 273 
253 210 157 266 
254 156 213 265 
255 180 178 263 
256 148 196 199 
257 207 147 214 
258 166 192 218 
259 152 204 210 
260 142 200 202 
261 174 172 224 
262 212 145 228 
263 14 15 217 
264 23 145 230 
265 176 211 226 
266 215 14 217 
267 16 17 227 
268 11 12 216 
269 13 14 215 
270 19 20 225 
271 184 182 229 
272 191 186 231 
273 178 226 263 
274 194 263 267 
275 143 227 264 
276 152 210 266 
277 213 153 265 
278 230 194 267 
279 194 180 263 
280 218 143 264 
281 178 176 226 
282 22 23 230 
283 167 166 218 
284 200 142 215 
285 204 152 216 
286 142 202 216 
287 211 150 225 
288 223 193 227 
289 145 212 229 
290 212 228 231 
291 153 213 231 
292 211 174 224 
293 150 211 224 
294 193 223 224 
295 172 193 224 
296 15 143 217 
297 192 217 218 
298 145 229 230 
299 211 225 226 
300 17 223 227 
301 143 16 227 
302 142 13 215 
303 152 11 216 
304 12 142 216 
305 150 19 225 
306 20 144 225 
307 182 194 229 
308 212 184 229 
309 213 191 231 
310 186 212 231 
311 205 207 214 
312 210 205 214 
313 147 209 269 
314 198 148 270 
315 192 200 215 
316 202 204 216 
317 228 153 231 
318 192 215 217 
319 225 144 226 
320 229 194 230 
321 217 143 218 
322 139 221 239 
323 175 177 262 
324 221 219 239 
325 219 154 239 
326 154 219 220 
327 190 173 235 
328 221 139 240 
329 189 240 242 
330 240 189 246 
331 233 190 235 
332 179 181 253 
333 189 242 243 
334 173 175 235 
335 181 183 243 
336 188 254 260 
337 181 243 253 
338 221 240 246 
339 235 175 262 
340 190 233 236 
341 183 189 243 
342 168 170 237 
343 236 149 259 
344 188 179 253 
345 188 253 254 
346 244 242 257 
347 170 190 237 
348 177 188 262 
349 188 260 262 
350 195 238 245 
351 244 140 254 
352 168 237 251 
353 240 139 241 
354 237 236 259 
355 140 244 257 
356 243 242 244 
357 140 250 254 
358 64 65 232 
359 141 64 232 
360 58 59 241 
361 238 67 245 
362 139 58 241 
363 56 57 239 
364 233 232 236 
365 72 155 222 
366 146 69 158 
367 57 139 239 
368 222 155 258 
369 146 160 245 
370 146 158 159 
371 160 195 245 
372 141 232 233 
373 190 236 237 
374 55 56 154 
375 149 238 259 
376 145 24 228 
377 18 19 150 
378 70 151 158 
379 151 71 222 
380 154 56 239 
381 18 150 223 
382 68 146 245 
383 149 66 238 
384 197 221 246 
385 65 66 149 
386 70 71 151 
387 68 69 146 
388 72 73 155 
389 76 77 147 
390 51 52 148 
391 151 222 256 
392 159 158 248 
393 240 241 242 
394 65 149 232 
395 25 153 228 
396 223 150 224 
397 187 197 246 
398 141 233 234 
399 25 26 153 
400 20 21 144 
401 23 24 145 
402 69 70 158 
403 71 72 222 
404 66 67 238 
405 163 159 248 
406 67 68 245 
407 158 151 248 
408 232 149 236 
409 146 159 160 
410 183 185 189 
411 185 187 246 
412 197 219 221 
413 78 79 157 
414 170 172 173 
415 177 179 188 
416 168 169 170 
417 24 25 228 
418 170 169 172 
419 166 171 192 
420 189 185 246 
421 187 191 196 
422 168 167 169 
423 202 203 204 
424 192 171 200 
425 161 163 247 
426 185 186 187 
427 165 167 168 
428 242 241 257 
429 200 201 202 
430 204 203 205 
431 10 11 152 
432 165 166 167 
433 172 169 193 
434 183 184 185 
435 173 174 175 
436 164 161 247 
437 202 201 203 
438 160 159 161 
439 181 182 183 
440 247 163 249 
441 166 164 171 
442 173 172 174 
443 179 180 181 
444 196 191 199 
445 187 186 191 
446 187 196 197 
447 160 161 162 
448 161 159 163 
449 204 205 210 
450 177 178 179 
451 200 171 201 
452 162 161 164 
453 160 162 195 
454 162 164 165 
455 165 164 166 
456 207 208 209 
457 241 59 257 
458 175 176 177 
459 170 173 190 
460 17 18 223 
461 205 206 207 
462 165 168 251 
463 185 184 186 
464 171 164 247 
465 183 182 184 
466 181 180 182 
467 234 233 235 
468 63 64 141 
469 205 203 206 
470 12 13 142 
471 15 16 143 
472 179 178 180 
473 175 174 176 
474 195 162 251 
475 201 171 247 
476 176 174 211 
477 203 201 249 
478 60 61 140 
479 57 58 139 
480 177 176 178 
481 61 62 250 
482 197 196 198 
483 207 206 208 
484 197 198 219 
485 249 163 252 
486 49 50 156 
487 206 203 249 
488 199 191 213 
489 201 247 249 
490 243 244 253 
491 219 198 220 
492 162 165 251 
493 186 184 212 
494 182 180 194 
495 253 244 254 
496 140 61 250 
497 206 249 252 
498 163 248 252 
499 208 206 252 
500 256 222 258 
501 63 141 255 
502 141 234 255 
503 59 60 257 
504 62 63 255 
505 250 62 255 
506 248 151 256 
507 208 252 256 
508 252 248 256 
509 60 140 257 
510 195 251 259 
511 238 195 259 
512 251 237 259 
513 209 208 258 
514 208 256 258 
515 258 155 261 
516 254 250 260 
517 250 255 260 
518 255 234 260 
519 209 258 261 
520 260 234 262 
521 234 235 262 
522 227 193 264 
523 167 218 264 
524 263 144 267 
525 169 167 264 
526 26 27 265 
527 9 10 266 
528 226 144 263 
529 144 21 267 
530 193 169 264 
531 148 199 268 
532 153 26 265 
533 10 152 266 
534 22 230 267 
535 214 147 271 
536 21 22 267 
537 51 148 268 
538 156 50 268 
539 76 147 269 
540 148 52 270 
541 78 157 271 
542 147 77 271 
543 154 220 273 
544 73 5 272 
545 5 74 272 
546 79 2 274 
547 2 9 274 
548 54 6 273 
549 6 55 273 
550 261 155 272 
551 3 49 275 
552 27 3 275 
553 261 75 269 
554 53 220 270 
555 50 51 268 
556 52 53 270 
557 75 76 269 
558 209 261 269 
559 220 198 270 
560 77 78 271 
561 265 27 275 
562 9 266 274 
563 155 73 272 
564 55 154 273 
565 157 79 274 
566 49 156 275 
567 156 265 275 
568 266 157 274 
$EndElements
