$MeshFormat
4.1 0 8
$EndMeshFormat
$PhysicalNames
10
1 2 "line_out_41"
1 3 "line_out_23"
1 4 "line_out_34"
1 5 "line_out_12"
1 6 "line_in_41"
1 7 "line_in_23"
1 8 "line_in_34"
1 9 "line_in_12"
2 1 "surface_out"
2 10 "surface_in"
$EndPhysicalNames
$Entities
8 8 2 0
1 0 0 0 0 
2 1 0 0 0 
3 1 1 0 0 
4 0 1 0 0 
5 0.2 0.3 0 0 
6 0.7 0.3 0 0 
7 0.7 0.55 0 0 
8 0.2 0.55 0 0 
1 0 0 0 1 0 0 1 5 2 1 -2 
2 1 0 0 1 1 0 1 3 2 2 -3 
3 0 1 0 1 1 0 1 4 2 3 -4 
4 0 0 0 0 1 0 1 2 2 4 -1 
5 0.2 0.3 0 0.7 0.3 0 1 9 2 5 -6 
6 0.7 0.3 0 0.7 0.55 0 1 7 2 6 -7 
7 0.2 0.55 0 0.7 0.55 0 1 8 2 7 -8 
8 0.2 0.3 0 0.2 0.55 0 1 6 2 8 -5 
1 0 0 0 1 1 0 1 1 8 1 2 3 4 -8 -7 -6 -5 
2 0.2 0.3 0 0.7 0.55 0 1 10 4 5 6 7 8 
$EndEntities
$Nodes
18 166 1 166
0 1 0 1
1
0 0 0
0 2 0 1
2
1 0 0
0 3 0 1
3
1 1 0
0 4 0 1
4
0 1 0
0 5 0 1
5
0.2 0.3 0
0 6 0 1
6
0.7 0.3 0
0 7 0 1
7
0.7 0.55 0
0 8 0 1
8
0.2 0.55 0
1 1 0 9
9
10
11
12
13
14
15
16
17
0.09999999999981467 0 0
0.1999999999995579 0 0
0.2999999999992664 0 0
0.3999999999989749 0 0
0.4999999999986943 0 0
0.5999999999989468 0 0
0.69999999999921 0 0
0.7999999999994734 0 0
0.8999999999997368 0 0
1 2 0 9
18
19
20
21
22
23
24
25
26
1 0.09999999999981467 0
1 0.1999999999995579 0
1 0.2999999999992664 0
1 0.3999999999989749 0
1 0.4999999999986943 0
1 0.5999999999989468 0
1 0.69999999999921 0
1 0.7999999999994734 0
1 0.8999999999997368 0
1 3 0 9
27
28
29
30
31
32
33
34
35
0.8999999999995836 1 0
0.7999999999999998 1 0
0.7000000000006934 1 0
0.6000000000013869 1 0
0.5000000000020587 1 0
0.4000000000016644 1 0
0.3000000000012483 1 0
0.2000000000008322 1 0
0.100000000000416 1 0
1 4 0 9
36
37
38
39
40
41
42
43
44
0 0.8999999999995836 0
0 0.7999999999999998 0
0 0.7000000000006934 0
0 0.6000000000013869 0
0 0.5000000000020587 0
0 0.4000000000016644 0
0 0.3000000000012483 0
0 0.2000000000008322 0
0 0.100000000000416 0
1 5 0 4
45
46
47
48
0.3000000000002797 0.3 0
0.4000000000004184 0.3 0
0.5000000000008278 0.3 0
0.6000000000004161 0.3 0
1 6 0 2
49
50
0.7 0.3833333333332142 0
0.7 0.4666666666669593 0
1 7 0 4
51
52
53
54
0.6000000000006114 0.55 0
0.5000000000012204 0.55 0
0.4000000000009971 0.55 0
0.3000000000004986 0.55 0
1 8 0 2
55
56
0.2 0.4666666666674687 0
0.2 0.3833333333341389 0
2 1 0 98
57
58
59
60
61
62
63
64
65
66
67
68
69
70
71
72
73
74
75
76
77
78
79
80
81
82
83
84
85
86
87
88
89
90
91
92
93
94
95
96
97
98
99
100
101
102
103
104
105
106
107
108
109
110
111
112
113
114
115
116
117
118
119
120
121
122
123
124
125
126
127
128
129
130
131
132
133
134
135
136
137
138
139
140
141
142
143
144
145
146
147
148
149
150
151
152
153
154
0.7461712063672459 0.9209959083391697 0
0.2537478303707523 0.6304884925814764 0
0.5508808659593387 0.9191478878173061 0
0.6500000000003057 0.6293856620131821 0
0.3497952584315402 0.9196291951904234 0
0.4500540358409985 0.6323177802995443 0
0.7427218478682558 0.634436631026004 0
0.7721687836486 0.3416666666666071 0
0.7736218928142029 0.2561743406840271 0
0.7721687836484498 0.5083333333334796 0
0.6983184234175434 0.2137868067556367 0
0.2526067819745489 0.07376767500390766 0
0.9156049063371337 0.7482740813040623 0
0.6914417074336898 0.7114429734436725 0
0.07593680234875234 0.7488285387163619 0
0.4460641235350932 0.2196122642645661 0
0.599447545821276 0.7095773041262308 0
0.847674892881529 0.0924650196966017 0
0.09994995527466283 0.1645403469970186 0
0.154588325669817 0.9053401926057355 0
0.6477441566087139 0.7870635649491081 0
0.553070517624332 0.0808488705304348 0
0.9187021110961786 0.4428857735731433 0
0.8467965157285896 0.3008954168079435 0
0.168128350878641 0.6348147992264394 0
0.2125037829607577 0.7109609724112029 0
0.302611566218539 0.7108066038485206 0
0.2539539532951444 0.7934139790930801 0
0.1278312163509495 0.3416666666670695 0
0.2570755896402042 0.221241064447414 0
0.7413650053685394 0.788131833356031 0
0.5502606730329187 0.784890325983941 0
0.1328243132594855 0.508104680523388 0
0.351088043931318 0.7921536615600506 0
0.850140873821707 0.2096367903700641 0
0.1238536888985503 0.2592661775333318 0
0.3489838520650313 0.2170678983849984 0
0.4034385969910274 0.1449702522950586 0
0.9048173871517113 0.5405596888500538 0
0.9134315676867562 0.6464190095820974 0
0.8333668574984432 0.6911126091514586 0
0.8311725881638254 0.6023766462236781 0
0.7454425029879085 0.08149854981449159 0
0.6500617248565765 0.07905621871215385 0
0.6096345514525974 0.1603743884691899 0
0.8434725510332552 0.9058817492532545 0
0.6494051860934068 0.9209403892341733 0
0.2523246421053463 0.9192723263573204 0
0.450484074008179 0.9235161978033585 0
0.7705748118484814 0.4250000000000842 0
0.1291174952385345 0.424990079967015 0
0.1547629753993082 0.08214411998783283 0
0.9200164377493373 0.8468163476558975 0
0.8326746469851916 0.798090386003975 0
0.5498975263869235 0.6307675834408357 0
0.07778400412370273 0.8468046044483774 0
0.7692478415714309 0.1656760425742596 0
0.921264695925037 0.1498326103470567 0
0.3510824312623116 0.6312827749363061 0
0.9219473224028383 0.3470928387454471 0
0.4004232278161307 0.7130559606240319 0
0.4498394228880404 0.7883363404204062 0
0.4999870719643814 0.7098242158158317 0
0.1603999650357131 0.7936366848338401 0
0.0849200442638251 0.6459143411060873 0
0.9246941041022798 0.2554425087600518 0
0.8414912034899815 0.3833333333333026 0
0.2101213572932158 0.1499595196956387 0
0.4506254877607681 0.07356134615931349 0
0.8376201003038583 0.4666666666669427 0
0.5478815016677075 0.2276417592801447 0
0.3061629225114748 0.1437414773763105 0
0.07068955078897445 0.5485364582255596 0
0.3521389648726767 0.0726734584724317 0
0.5999617378429054 0.8518882995849553 0
0.5017857965052542 0.1511681468331179 0
0.6949376193733735 0.8501481947237272 0
0.06704185060782074 0.4608274253423648 0
0.4995188612326956 0.8534932867701521 0
0.926794919243102 0.9267949192431431 0
0.3030193852690229 0.8533013699776879 0
0.07320508075713335 0.07320508075729446 0
0.07320508075719248 0.9267949192428074 0
0.6945410088572113 0.1400784012651463 0
0.9293605351490344 0.07020523554346367 0
0.06579745953660834 0.3712023917252042 0
0.400624174293466 0.8550716752870131 0
0.07211937879582209 0.2999647584951537 0
0.1368712873234817 0.7003069852408712 0
0.765783094774214 0.7229277861690228 0
0.774342091523316 0.8514176935602037 0
0.6309397382610062 0.2361157261165474 0
0.2169370115993514 0.8524237775608237 0
0.06053552817882833 0.2380279942390351 0
0.1400327092417584 0.5705330610529991 0
0.7656279491869589 0.5684514612214893 0
0.1803571345195103 0.2188236162597787 0
0.8253147095933865 0.5356236847547198 0
2 2 0 12
155
156
157
158
159
160
161
162
163
164
165
166
0.6281257379765495 0.4239069963858422 0
0.2718742620235007 0.4239069963862245 0
0.4500000000008411 0.4815935822716771 0
0.3561698421403932 0.46695961964148 0
0.5438301578609718 0.4669596196419721 0
0.5598100211655115 0.370382812897524 0
0.3401899788352881 0.3703828128975412 0
0.4500000000006119 0.3881239519551027 0
0.2630957688465136 0.35738158928261 0
0.6369042311536807 0.3573815892823968 0
0.6343911791676264 0.4915066565389548 0
0.2656088208328785 0.4915066565390347 0
$EndNodes
$Elements
10 346 1 346
1 1 1 10
1 1 9 
2 9 10 
3 10 11 
4 11 12 
5 12 13 
6 13 14 
7 14 15 
8 15 16 
9 16 17 
10 17 2 
1 2 1 10
11 2 18 
12 18 19 
13 19 20 
14 20 21 
15 21 22 
16 22 23 
17 23 24 
18 24 25 
19 25 26 
20 26 3 
1 3 1 10
21 3 27 
22 27 28 
23 28 29 
24 29 30 
25 30 31 
26 31 32 
27 32 33 
28 33 34 
29 34 35 
30 35 4 
1 4 1 10
31 4 36 
32 36 37 
33 37 38 
34 38 39 
35 39 40 
36 40 41 
37 41 42 
38 42 43 
39 43 44 
40 44 1 
1 5 1 5
41 5 45 
42 45 46 
43 46 47 
44 47 48 
45 48 6 
1 6 1 3
46 6 49 
47 49 50 
48 50 7 
1 7 1 5
49 7 51 
50 51 52 
51 52 53 
52 53 54 
53 54 8 
1 8 1 3
54 8 55 
55 55 56 
56 56 5 
2 1 2 252
57 74 91 113 
58 97 63 98 
59 91 74 114 
60 92 75 153 
61 75 124 153 
62 86 124 128 
63 99 74 113 
64 63 97 146 
65 79 95 126 
66 126 95 154 
67 51 7 60 
68 12 125 130 
69 109 102 110 
70 51 60 111 
71 96 97 98 
72 96 69 97 
73 67 101 140 
74 45 5 86 
75 24 69 96 
76 125 94 130 
77 8 54 58 
78 60 73 111 
79 124 68 128 
80 75 92 150 
81 76 112 120 
82 75 108 124 
83 72 93 94 
84 72 46 93 
85 110 102 147 
86 60 7 63 
87 58 54 115 
88 16 74 99 
89 8 58 81 
90 97 69 110 
91 78 100 101 
92 95 96 98 
93 79 22 95 
94 83 58 115 
95 95 23 96 
96 28 57 102 
97 21 22 79 
98 10 11 68 
99 78 14 100 
100 15 16 99 
101 114 19 122 
102 88 118 119 
103 23 24 96 
104 91 114 122 
105 97 110 146 
106 15 99 100 
107 16 17 74 
108 28 29 57 
109 22 23 95 
110 24 25 69 
111 30 59 103 
112 57 29 103 
113 61 33 104 
114 27 28 102 
115 37 38 71 
116 43 44 75 
117 32 33 61 
118 59 31 105 
119 34 76 104 
120 20 116 122 
121 32 61 105 
122 76 120 149 
123 14 15 100 
124 33 34 104 
125 118 117 119 
126 34 35 76 
127 13 14 78 
128 29 30 103 
129 53 52 62 
130 31 32 105 
131 47 46 72 
132 30 31 59 
133 46 45 93 
134 116 80 122 
135 93 86 128 
136 111 73 119 
137 73 88 119 
138 77 70 87 
139 84 83 90 
140 71 38 121 
141 52 51 111 
142 9 10 108 
143 25 26 109 
144 10 68 108 
145 129 40 134 
146 20 21 116 
147 110 87 146 
148 82 84 120 
149 36 37 112 
150 45 86 93 
151 82 120 145 
152 81 121 151 
153 82 83 84 
154 54 53 115 
155 41 42 142 
156 50 49 106 
157 49 6 64 
158 7 50 66 
159 101 100 140 
160 60 63 70 
161 101 67 148 
162 65 6 67 
163 90 83 117 
164 72 94 132 
165 69 25 109 
166 73 70 77 
167 60 70 73 
168 135 105 143 
169 73 77 88 
170 142 42 144 
171 5 56 85 
172 56 55 107 
173 55 8 89 
174 118 135 143 
175 37 71 112 
176 81 58 82 
177 6 48 148 
178 82 58 83 
179 39 40 129 
180 62 52 111 
181 21 79 116 
182 18 19 114 
183 78 101 132 
184 64 6 65 
185 80 65 91 
186 90 117 118 
187 83 115 117 
188 89 129 134 
189 66 50 106 
190 49 64 106 
191 48 47 127 
192 69 109 110 
193 53 62 115 
194 121 129 151 
195 12 13 125 
196 2 18 141 
197 64 65 80 
198 116 79 123 
199 5 85 92 
200 68 11 130 
201 67 6 148 
202 17 2 141 
203 3 27 136 
204 26 3 136 
205 1 9 138 
206 44 1 138 
207 120 71 145 
208 117 62 119 
209 4 36 139 
210 35 4 139 
211 65 67 113 
212 85 56 107 
213 55 89 107 
214 123 79 126 
215 91 65 113 
216 19 20 122 
217 94 125 132 
218 38 39 121 
219 48 127 148 
220 70 63 146 
221 112 71 120 
222 102 57 147 
223 118 88 135 
224 62 111 119 
225 115 62 117 
226 80 91 122 
227 98 63 152 
228 101 127 132 
229 64 80 123 
230 86 5 153 
231 40 41 134 
232 94 93 128 
233 106 64 123 
234 13 78 125 
235 80 116 123 
236 128 68 130 
237 71 121 145 
238 47 72 127 
239 108 68 124 
240 42 43 150 
241 57 103 133 
242 103 59 131 
243 95 98 154 
244 59 105 135 
245 11 12 130 
246 66 106 126 
247 106 123 126 
248 61 104 137 
249 100 99 140 
250 104 76 149 
251 127 101 148 
252 43 75 150 
253 9 108 138 
254 109 26 136 
255 5 92 153 
256 8 81 151 
257 36 112 139 
258 105 61 143 
259 74 17 141 
260 27 102 136 
261 75 44 138 
262 131 77 133 
263 88 77 131 
264 77 87 133 
265 76 35 139 
266 134 41 142 
267 84 90 137 
268 103 131 133 
269 113 67 140 
270 102 109 136 
271 108 75 138 
272 87 70 146 
273 63 7 152 
274 90 118 143 
275 121 39 129 
276 112 76 139 
277 121 81 145 
278 81 82 145 
279 88 131 135 
280 87 110 147 
281 131 59 135 
282 18 114 141 
283 114 74 141 
284 99 113 140 
285 107 89 134 
286 137 90 143 
287 61 137 143 
288 57 133 147 
289 7 66 152 
290 85 107 142 
291 137 104 149 
292 92 85 144 
293 144 42 150 
294 89 8 151 
295 84 137 149 
296 107 134 142 
297 94 128 130 
298 127 72 132 
299 133 87 147 
300 125 78 132 
301 98 152 154 
302 120 84 149 
303 85 142 144 
304 152 66 154 
305 124 86 153 
306 129 89 151 
307 66 126 154 
308 92 144 150 
2 2 2 38
309 160 159 162 
310 158 161 162 
311 159 157 162 
312 157 158 162 
313 52 53 157 
314 53 54 158 
315 51 52 159 
316 157 53 158 
317 52 157 159 
318 49 50 155 
319 55 56 156 
320 54 8 166 
321 7 51 165 
322 48 6 164 
323 5 45 163 
324 161 46 162 
325 47 160 162 
326 45 46 161 
327 47 48 160 
328 155 159 160 
329 158 156 161 
330 158 54 166 
331 51 159 165 
332 46 47 162 
333 156 158 166 
334 159 155 165 
335 56 5 163 
336 50 7 165 
337 6 49 164 
338 8 55 166 
339 155 160 164 
340 161 156 163 
341 160 48 164 
342 45 161 163 
343 155 50 165 
344 49 155 164 
345 55 156 166 
346 156 56 163 
$EndElements
